<?xml version="1.0" encoding="utf-8"?>
<!-- Generator: Adobe Illustrator 25.1.0, SVG Export Plug-In . SVG Version: 6.00 Build 0)  -->
<svg version="1.1" id="Layer_1" xmlns="http://www.w3.org/2000/svg" xmlns:xlink="http://www.w3.org/1999/xlink" x="0px" y="0px"
	 viewBox="0 0 1440 320" style="enable-background:new 0 0 1440 320;" xml:space="preserve">
<style type="text/css">
	.st0{fill:#6BE8E2;}
	.st1{fill:#FFFFFF;}
</style>
<path class="st0" d="M-46.37,315.01l61.35,5.47c61.35,5.47,184.04,16.42,306.73,27.36c122.69,10.94,245.38,21.89,368.08,32.83
	s245.38,21.89,368.08,32.83c122.69,10.94,245.38,21.89,306.73,27.36l61.35,5.47l19.9-223.11l-62.3,5.19
	c-62.26,4.79-186.91,15.76-308.62-6.14S834.24,147.58,713,120.41C591.7,93.82,468.12,92.84,345.87,76.92S102.88,28.14,42.45,12.4
	l-60.4-16.13L-46.37,315.01z"/>
<path class="st1" d="M-22.29,446.33l61.59-0.37c61.59-0.37,184.77-1.12,307.94-1.87c123.18-0.75,246.35-1.5,369.53-2.25
	s246.35-1.5,369.53-2.25c123.18-0.75,246.35-1.5,307.94-1.87l61.59-0.37l-1.36-224l-61.52,11.07
	c-61.53,10.67-184.57,33.42-307.81,23.17c-123.24-10.25-246.68-51.5-369.95-67.05c-123.27-14.95-246.39-4.2-369.6-8.45
	s-246.52-25.5-308.17-35.43l-61.65-10.33L-22.29,446.33z"/>
</svg>
