<?xml version="1.0" encoding="utf-8"?>
<!-- Generator: Adobe Illustrator 25.1.0, SVG Export Plug-In . SVG Version: 6.00 Build 0)  -->
<svg version="1.1" id="Layer_1" xmlns="http://www.w3.org/2000/svg" xmlns:xlink="http://www.w3.org/1999/xlink" x="0px" y="0px"
	 viewBox="0 0 1440 489.89" style="enable-background:new 0 0 1440 489.89;" xml:space="preserve">
<style type="text/css">
	.st0{fill:#F6FAFF;}
	.st1{fill:#E4EEF9;}
</style>
<path class="st0" d="M1957.25-60l-103.1,18.39c-103.1,17.7-309.31,55.5-515.52,64.1S926.21,13.89,720,40.87
	C513.79,68.88,307.58,141.05,101.38,159.95s-412.42-18.9-515.52-36.6l-103.1-18.39v384.92h103.1c103.1,0,309.31,0,515.52,0
	s412.42,0,618.62,0s412.42,0,618.62,0s412.42,0,515.52,0h103.1V-60z"/>
<path class="st1" d="M116.82,316.34c0-3.76-3.05-6.82-6.82-6.82c-3.77,0-6.81,3.05-6.81,6.82c0,45.33-31.23,83.72-74.96,93.2v-20.83
	c35.23-9.1,61.33-41.15,61.33-79.19V207.31c0-45.09-36.68-81.78-81.77-81.78c-45.1,0-81.78,36.69-81.78,81.78v102.22
	c0,38.03,26.1,70.09,61.33,79.19v20.83c-43.74-9.48-74.96-47.86-74.96-93.2c0-3.76-3.05-6.81-6.82-6.81s-6.81,3.05-6.81,6.81
	c0,52.82,37.08,97.36,88.59,107.1V439h-27.26c-18.78,0-34.07,15.29-34.07,34.07c0,3.76,3.05,6.81,6.82,6.81H82.74
	c3.77,0,6.81-3.05,6.81-6.81c0-18.79-15.29-34.07-34.07-34.07H28.23v-15.57C79.73,413.7,116.82,369.14,116.82,316.34z
	 M-60.02,316.34h33.73c3.77,0,6.82-3.05,6.82-6.82c0-3.76-3.05-6.81-6.82-6.81h-34.07v-20.44h34.07c3.77,0,6.82-3.05,6.82-6.82
	c0-3.76-3.05-6.82-6.82-6.82h-34.07V248.2h34.07c3.77,0,6.82-3.05,6.82-6.82s-3.05-6.82-6.82-6.82h-34.07v-20.44h34.07
	c3.77,0,6.82-3.05,6.82-6.81c0-3.76-3.05-6.82-6.82-6.82h-33.73c3.43-34.39,32.53-61.33,67.81-61.33s64.37,26.94,67.81,61.33H41.86
	c-3.77,0-6.82,3.05-6.82,6.82c0,3.76,3.05,6.81,6.82,6.81h34.07v20.44H41.86c-3.77,0-6.82,3.05-6.82,6.82s3.05,6.82,6.82,6.82h34.07
	v20.44H41.86c-3.77,0-6.82,3.05-6.82,6.82c0,3.76,3.05,6.82,6.82,6.82h34.07v20.44H41.86c-3.77,0-6.82,3.05-6.82,6.81
	c0,3.76,3.05,6.82,6.82,6.82h33.73c-3.02,30.31-25.99,54.81-55.54,60.21h-0.01c-3.98,0.73-8.07,1.12-12.25,1.12
	C-27.49,377.67-56.59,350.73-60.02,316.34z M55.48,452.63c8.89,0,16.46,5.7,19.28,13.63H-59.2c2.82-7.94,10.4-13.63,19.28-13.63
	h34.07c3.77,0,6.82-3.05,6.82-6.81v-54.82c2.25,0.19,4.52,0.31,6.81,0.31s4.57-0.12,6.82-0.31v54.82c0,3.76,3.05,6.81,6.82,6.81
	H55.48z"/>
<path class="st1" d="M73,126.35c5.86,1.73,10.86,5.14,14.45,9.85c3.63,4.76,5.61,10.53,5.7,16.7c0.06,3.73,3.1,6.71,6.82,6.71h0.11
	c3.76-0.06,6.77-3.16,6.71-6.92c-0.14-9.1-3.08-17.66-8.5-24.76c-5.37-7.03-12.79-12.09-21.43-14.64c-3.6-1.06-7.39,1-8.47,4.61
	C67.33,121.5,69.39,125.29,73,126.35z"/>
<path class="st1" d="M120.03,111.31c-9.6-12.55-23.35-21.51-38.71-25.23c-3.65-0.87-7.34,1.36-8.22,5.02
	c-0.89,3.66,1.36,7.34,5.02,8.23c12.52,3.03,23.27,10.03,31.09,20.26c7.33,9.59,11.26,21.1,11.37,33.27
	c0.03,3.74,3.07,6.75,6.81,6.75h0.06c3.76-0.03,6.79-3.11,6.76-6.87C134.06,137.59,129.16,123.26,120.03,111.31z"/>
<path d="M-103.68,18.91l-20.08,20.09c-2.66,2.66-2.66,6.98,0,9.64c1.33,1.33,3.07,2,4.82,2c1.74,0,3.49-0.67,4.82-2l20.09-20.09
	c2.66-2.66,2.66-6.98,0-9.64C-96.7,16.26-101.01,16.26-103.68,18.91z"/>
<path d="M-143.85,59.09l-20.09,20.09c-2.66,2.66-2.66,6.97,0,9.64c1.33,1.33,3.07,2,4.82,2s3.49-0.67,4.82-2l20.09-20.09
	c2.66-2.66,2.66-6.97,0-9.64C-136.87,56.43-141.19,56.43-143.85,59.09z"/>
<path d="M-154.3,18.91c-2.66-2.66-6.98-2.66-9.64,0c-2.66,2.66-2.66,6.98,0,9.64l20.09,20.09c1.33,1.33,3.08,2,4.82,2
	s3.49-0.67,4.82-2c2.66-2.66,2.66-6.98,0-9.64L-154.3,18.91z"/>
<path d="M-114.12,59.09c-2.66-2.66-6.98-2.66-9.64,0c-2.66,2.66-2.66,6.98,0,9.64l20.08,20.09c1.33,1.33,3.08,2,4.82,2
	c1.74,0,3.49-0.67,4.82-2c2.66-2.66,2.66-6.98,0-9.64L-114.12,59.09z"/>
<path d="M-182.97,214.54c-15.04,0-27.26,12.23-27.26,27.26c0,15.03,12.22,27.26,27.26,27.26c15.03,0,27.26-12.23,27.26-27.26
	C-155.72,226.77-167.94,214.54-182.97,214.54z M-182.97,255.43c-7.51,0-13.63-6.11-13.63-13.63c0-7.52,6.12-13.63,13.63-13.63
	c7.51,0,13.63,6.11,13.63,13.63C-169.34,249.32-175.46,255.43-182.97,255.43z"/>
<path d="M-108.01,163.43c0,5.65-4.58,10.22-10.22,10.22s-10.22-4.58-10.22-10.22s4.57-10.22,10.22-10.22
	S-108.01,157.79-108.01,163.43z"/>
</svg>
