<?xml version="1.0" encoding="utf-8"?>
<!-- Generator: Adobe Illustrator 25.1.0, SVG Export Plug-In . SVG Version: 6.00 Build 0)  -->
<svg version="1.1" id="Layer_1" xmlns="http://www.w3.org/2000/svg" xmlns:xlink="http://www.w3.org/1999/xlink" x="0px" y="0px"
	 viewBox="0 0 335.71 280.67" style="enable-background:new 0 0 335.71 280.67;" xml:space="preserve">
<style type="text/css">
	.st0{fill:url(#SVGID_1_);}
	.st1{fill:url(#SVGID_2_);}
	.st2{fill:url(#SVGID_3_);}
	.st3{fill:url(#SVGID_4_);}
	.st4{fill:url(#SVGID_5_);}
	.st5{fill:url(#SVGID_6_);}
	.st6{fill:#FFFFFF;}
	.st7{fill:url(#SVGID_7_);}
	.st8{fill:url(#SVGID_8_);}
	.st9{fill:url(#SVGID_9_);}
	.st10{fill:url(#SVGID_10_);}
	.st11{fill:url(#SVGID_11_);}
	.st12{fill:url(#SVGID_12_);}
	.st13{fill:url(#SVGID_13_);}
	.st14{fill:url(#SVGID_14_);}
	.st15{fill:url(#SVGID_15_);}
	.st16{fill:url(#SVGID_16_);}
	.st17{fill:url(#SVGID_17_);}
	.st18{fill:url(#SVGID_18_);}
	.st19{fill:url(#SVGID_19_);}
</style>
<g>
	<linearGradient id="SVGID_1_" gradientUnits="userSpaceOnUse" x1="168.7057" y1="32.1221" x2="168.7057" y2="317.4521">
		<stop  offset="0.2834" style="stop-color:#49C1BE"/>
		<stop  offset="0.5044" style="stop-color:#FFFFFF"/>
		<stop  offset="0.7192" style="stop-color:#49C1BE"/>
	</linearGradient>
	<path class="st0" d="M165.63,146.32h6.16c-0.84,1.92-1.9,2.91-3.07,2.91C167.07,149.23,166.06,148.23,165.63,146.32z"/>
	<linearGradient id="SVGID_2_" gradientUnits="userSpaceOnUse" x1="170.4333" y1="-14.8086" x2="170.4333" y2="393.1627">
		<stop  offset="0.2834" style="stop-color:#49C1BE"/>
		<stop  offset="0.5044" style="stop-color:#FFFFFF"/>
		<stop  offset="0.7192" style="stop-color:#49C1BE"/>
	</linearGradient>
	<path class="st1" d="M176.2,154.13v11.68c-0.91,0.92-1.97,1.63-3.19,1.99c-0.18,0.06-0.37,0.1-0.55,0.12
		c-1.57,0.29-3.15-0.1-4.62-0.76c-0.83-0.36-1.61-0.79-2.34-1.24c-0.29-0.18-0.58-0.37-0.85-0.58v-10.19
		c0.46,0.56,0.96,1.1,1.52,1.6c1.3,1.16,2.74,1.98,4.56,2c1.39,0.02,2.5-0.47,3.42-1.49C175.02,156.34,175.69,155.28,176.2,154.13z"
		/>
	<linearGradient id="SVGID_3_" gradientUnits="userSpaceOnUse" x1="237.2664" y1="-293.5342" x2="237.2664" y2="590.9457">
		<stop  offset="0.2834" style="stop-color:#49C1BE"/>
		<stop  offset="0.5044" style="stop-color:#FFFFFF"/>
		<stop  offset="0.7192" style="stop-color:#49C1BE"/>
	</linearGradient>
	<path class="st2" d="M234.22,152.55c-0.64,1.72-1.2,3.34-1.67,4.88c0.73-2.78,1.73-5.78,3.02-8.98l0.01-0.01
		c0.31-0.79,0.66-1.59,1.02-2.4c0-0.01,0.01-0.03,0.01-0.04c1.03-2.35,2.19-4.79,3.51-7.34c0.62-1.24,1.23-1.86,1.44-1.86
		c0.2,0,0.4,0.2,0.4,0.41c0,0.69-0.46,2.31-1.34,4.9c-0.01,0.01-0.01,0.01-0.01,0.02c-0.22,0.25-0.44,0.51-0.63,0.77
		c-1.36,1.78-2.65,3.61-4.15,5.27l-0.01,0.01C235.37,149.48,234.83,150.94,234.22,152.55z"/>
	<linearGradient id="SVGID_4_" gradientUnits="userSpaceOnUse" x1="237.7584" y1="-128.6832" x2="237.7584" y2="432.5983">
		<stop  offset="0.2834" style="stop-color:#49C1BE"/>
		<stop  offset="0.5044" style="stop-color:#FFFFFF"/>
		<stop  offset="0.7192" style="stop-color:#49C1BE"/>
	</linearGradient>
	<path class="st3" d="M238.5,266.77c0,0.62-0.03,1.24-0.08,1.88c-0.09,1.13-0.23,2.29-0.41,3.47h-0.98v-20.4
		c0.47,2.42,0.84,4.83,1.07,7.25v0.01C238.36,261.57,238.5,264.16,238.5,266.77z"/>
	<linearGradient id="SVGID_5_" gradientUnits="userSpaceOnUse" x1="205.98" y1="-43.7802" x2="205.98" y2="369.5883">
		<stop  offset="0.2834" style="stop-color:#49C1BE"/>
		<stop  offset="0.5044" style="stop-color:#FFFFFF"/>
		<stop  offset="0.7192" style="stop-color:#49C1BE"/>
	</linearGradient>
	<path class="st4" d="M209.73,146.35c-0.29-0.38-0.58-0.77-0.85-1.17h-0.01c-0.66-0.95-1.29-1.93-1.87-2.94v-0.01
		c-1.46-2.53-2.66-5.1-3.48-7.06c-0.02-0.03-0.03-0.07-0.04-0.1c-0.72-1.68-1.14-2.86-1.24-3.14l0.35,0.65l0.01,0.02l1.08,2.09
		l3.58,6.91l2.24,4.31l0.01,0.01L209.73,146.35z"/>
	<linearGradient id="SVGID_6_" gradientUnits="userSpaceOnUse" x1="210.5393" y1="-36.6923" x2="210.5393" y2="349.2017">
		<stop  offset="0.2834" style="stop-color:#49C1BE"/>
		<stop  offset="0.5044" style="stop-color:#FFFFFF"/>
		<stop  offset="0.7192" style="stop-color:#49C1BE"/>
	</linearGradient>
	<path class="st5" d="M214.29,136.98c-1.06-0.91-2.02-1.98-2.86-3.08c-0.01-0.01-0.02-0.03-0.03-0.04c-1.72-2.26-2.98-4.7-3.74-6.38
		c-0.02-0.03-0.03-0.07-0.05-0.11c-0.55-1.21-0.83-2-0.83-2L214.29,136.98z"/>
	<path class="st6" d="M290.29,152.79c0-0.17-0.01-0.34-0.02-0.51c0-0.01,0-0.01,0-0.02c0-0.17-0.01-0.36-0.02-0.54
		c-0.01-0.25-0.02-0.5-0.03-0.78c-0.01-0.26-0.03-0.53-0.04-0.81c-0.01-0.21-0.03-0.43-0.04-0.66c0-0.09-0.01-0.19-0.02-0.3v-0.01
		c-0.08-1.11-0.18-2.27-0.29-3.38c-0.04-0.3-0.08-0.59-0.11-0.88c-0.1-0.79-0.22-1.57-0.36-2.25c-0.02-0.13-0.06-0.26-0.08-0.38
		c-0.09-0.41-0.19-0.78-0.29-1.11c-0.21-0.68-0.46-1.34-0.72-1.98c-0.03-0.07-0.06-0.12-0.08-0.18c-1.96-4.58-5.19-7.97-10.3-9.58
		c-2.63-0.83-5.33-1.16-8.07-1.29c-3.4-0.15-6.81-0.12-10.21-0.34c-4.56-0.28-8.76-1.82-12.66-4.16c-0.56-0.34-1.08-0.73-1.82-1.23
		c-0.26,1.05-0.42,1.89-0.67,2.71c-0.13,0.48-0.29,1.01-0.59,1.39c-1.62,2.06-3.32,4.07-4.94,6.13c-1.8,2.28-3.62,4.51-6,6.21
		c-0.3,0.22-0.61,0.42-0.92,0.61c-0.03,0.02-0.07,0.03-0.09,0.04c-0.25,0.16-0.49,0.3-0.75,0.44c-0.13,0.07-0.26,0.13-0.39,0.19
		c-0.28,0.15-0.56,0.28-0.84,0.39c-0.18,0.08-0.36,0.15-0.54,0.2c-0.16,0.07-0.31,0.12-0.46,0.17c-0.3,0.1-0.59,0.18-0.88,0.26
		c-0.34,0.08-0.68,0.15-1.02,0.2c-0.2,0.03-0.41,0.07-0.61,0.09l-7.66,11.26c0.26,0.09,0.5,0.17,0.76,0.25
		c0.31,0.09,0.63,0.17,0.93,0.25c0.56,0.13,1.13,0.25,1.7,0.31c0.08,0.01,0.16,0.02,0.23,0.02c0.6,0.08,1.21,0.11,1.81,0.11
		c2.66,0,5.28-0.68,7.66-2.1c0.96-0.57,1.88-1.26,2.75-2.08c0.35-0.32,0.67-0.66,0.98-1.01l0.01-0.01c0.09-0.08,0.17-0.17,0.25-0.26
		l0.01-0.01c1.5-1.65,2.78-3.49,4.15-5.27c0.19-0.26,0.4-0.53,0.63-0.77c0-0.01,0-0.01,0.01-0.02c0.19-0.23,0.38-0.47,0.59-0.69
		c0.68-0.81,1.41-1.58,2.1-2.37c0.17-0.18,0.41-0.28,0.77-0.53c0.79,3.02,1.59,5.92,3.14,8.54c1.61,2.72,3.76,4.91,6.25,6.79
		c2.44,1.83,5.13,3.18,8.19,3.7c1.04-1.23,1.31-2.62,1.51-3.97c0.6-4.19,0.4-8.33-1.02-12.37c-0.04-0.15-0.07-0.29-0.13-0.53
		c0.18-0.08,0.36-0.21,0.53-0.21c3.24,0.02,6.51-0.26,9.73,0.3c3.29,0.58,6.42,1.51,9.09,3.52c0.08,0.06,0.16,0.12,0.23,0.19
		c0.3,0.22,0.59,0.48,0.88,0.75c0.57,0.54,1.23,1.45,1.8,1.99c0.06,0.04,0.1,0.1,0.15,0.16c0.06,0.04,0.11,0.11,0.16,0.17
		c0.04,0.06,0.09,0.11,0.13,0.17c0.12,0.16,0.23,0.32,0.34,0.51c0.12,0.19,0.23,0.4,0.32,0.63c0.1,0.2,0.19,0.42,0.27,0.65
		c0.08,0.22,0.17,0.46,0.23,0.69c0.01,0.02,0.01,0.06,0.02,0.08c0.15,0.49,0.28,1,0.38,1.5c0.01,0.09,0.03,0.18,0.04,0.27v0.01
		c0.01,0.02,0.01,0.04,0.01,0.07c0.03,0.13,0.07,0.28,0.09,0.41c0.02,0.12,0.04,0.25,0.06,0.37c0.04,0.25,0.08,0.48,0.11,0.72
		c0,0.03,0,0.07,0.01,0.09c0.02,0.2,0.06,0.4,0.07,0.59c0.02,0.21,0.04,0.41,0.06,0.6c0.02,0.18,0.03,0.34,0.04,0.48
		c0.04,0.67,0.06,1.11,0.06,1.11c0.01-0.01,0.02-0.01,0.03-0.02c-0.15,0.7-0.21,1.2-0.37,1.65c-0.12,0.35-0.25,0.68-0.38,1.02
		c-2.53,6.65-6.06,12.72-10.67,18.17c-3.88,4.58-8.14,8.77-13.18,12.07c-6.87,4.48-14.35,7.4-22.52,8.44
		c-8.02,1.02-15.5-0.54-22.4-4.72c-2.46-1.49-4.73-3.21-6.79-5.53c-0.1-0.12-0.21-0.25-0.32-0.37c-0.2-0.24-0.4-0.48-0.6-0.74
		c0.42-0.09-0.13-0.81-0.36-0.73c-7.45-9.5-9.65-29.17-2.45-43.08c0-0.01,0-0.02,0.01-0.02c0.01-0.02,0.01-0.03,0.02-0.06
		c0.1,0.13,0.19,0.27,0.27,0.39c0.03,0.06,0.08,0.12,0.12,0.18c0.04,0.06,0.08,0.11,0.11,0.17c-0.01-0.02-0.02-0.04-0.03-0.07
		c-0.15-0.26-0.29-0.51-0.44-0.77c0.03-0.08,0.06-0.16,0.09-0.24v-0.01c0.08-0.21,0.17-0.41,0.26-0.63
		c0.92-2.28,2.29-5.14,4.15-7.75c0,0.02,0.02,0.03,0.03,0.04c0.04-0.1,0.1-0.2,0.16-0.3c0-0.01,0-0.01,0-0.01
		c0.07-0.13,0.15-0.27,0.23-0.41c2.88-4.89,12.83-14.68,16.24-15.92c1.17,0.81,1.46,2.37,2.64,3.34c0.92-1.93,0.26-3.76,0.36-5.69
		c7.93-4.96,16.39-9.01,24.71-13.34c8.38-4.35,17.1-7.95,25.7-11.46c1.1-2.34,3.01-10.34,2.9-12.08c-0.49-0.13-1.03-0.32-1.58-0.39
		c-3.52-0.45-7.06-0.91-10.59-1.27c-3.59-0.37-7.19-0.66-10.79-0.94c-2.93-0.22-5.86-0.38-8.79-0.57
		c-4.53-0.28-9.06-0.74-13.59-0.83c-7.54-0.16-15.07-0.11-22.6-0.07c-3.66,0.02-7.31,0.32-10.9,1.14c-2.95,0.66-5.33,2.04-6.98,4.67
		c-1.54,2.45-2.14,5.14-2.42,7.92c-0.29,2.82,0.23,5.55,1.52,8.11c1.08,2.15,3.01,3.31,5.04,4.38c4.52,2.37,9.03,4.76,13.51,7.21
		c1.67,0.91,3.22,2,4.99,3.12c-5.29,4.94-9.94,10.14-13.32,16.56c-0.08,0.13-0.16,0.28-0.22,0.41c0,0.01-0.01,0.02-0.02,0.03
		c-0.02-0.03-0.03-0.06-0.06-0.09l-3.9,7.27l-0.19,0.35c0.01,0.04,0.02,0.08,0.03,0.11c0,0.01,0,0.02,0,0.02
		c-0.01,0.03-0.02,0.06-0.03,0.08c-0.56,1.35-1.1,2.49-1.48,3.69c-1.62,5.12-2.88,10.31-3.62,15.64
		c-0.94,6.79-0.92,13.57-0.39,20.37c0.32,4.23,1.21,8.36,2.57,12.38c1.25,3.69,2.91,7.18,5.29,10.26c2.57,3.34,5.74,6.04,9.43,8.13
		c5.2,2.94,10.76,4.71,16.73,5.03c4.35,0.23,8.63-0.31,12.86-1.39c5.69-1.45,11.13-3.54,16.09-6.66c7.5-4.7,13.44-11.06,18.43-18.29
		c3.65-5.3,6.43-11.04,8.4-17.17c1.19-3.67,2.07-7.4,2.45-11.23c0.03-0.32,0.07-0.66,0.09-0.98
		C290.35,155.03,290.35,154.15,290.29,152.79z M210.8,93.55c-2.39-1.21-4.8-2.39-7.19-3.59c-0.54-0.27-1.06-0.58-1.71-0.95
		c1.43-1.02,2.96-1.21,4.45-1.5c4.33-0.82,8.72-0.87,13.09-0.96c5.67-0.1,11.35-0.3,17.01-0.15c7.78,0.21,15.55,0.73,23.33,1.12
		c0.23,0.01,0.47,0.07,0.77,0.34c-5.62,2.73-11.3,5.36-16.85,8.22c-5.55,2.86-11.08,5.74-16.29,9.39
		C222.62,100.27,216.92,96.62,210.8,93.55z"/>
	<linearGradient id="SVGID_7_" gradientUnits="userSpaceOnUse" x1="189.7637" y1="-116.2986" x2="189.7637" y2="487.2146">
		<stop  offset="0.2834" style="stop-color:#49C1BE"/>
		<stop  offset="0.5044" style="stop-color:#FFFFFF"/>
		<stop  offset="0.7192" style="stop-color:#49C1BE"/>
	</linearGradient>
	<path class="st7" d="M194.32,170.69c-1.06,6.11-2.95,9.26-5.27,9.26c-2.73,0-3.99-2.31-3.99-6.73c0-5.47,1.46-11.15,4.63-17.25
		c0.84-1.46,1.26-2.1,1.46-2.1c0,0.21-0.2,1.05-0.63,2.53c-2.1,6.11-3.15,10.52-3.15,12.84c0,3.57,0.84,5.26,2.73,5.26
		c1.05,0,2.31-1.26,3.79-3.79c0-0.21,0.21-0.41,0.21-0.63c0.21,0,0.21,0,0.21,0C194.52,170.28,194.52,170.48,194.32,170.69z"/>
	<linearGradient id="SVGID_8_" gradientUnits="userSpaceOnUse" x1="221.8274" y1="-138.4368" x2="221.8274" y2="465.0323">
		<stop  offset="0.2834" style="stop-color:#49C1BE"/>
		<stop  offset="0.5044" style="stop-color:#FFFFFF"/>
		<stop  offset="0.7192" style="stop-color:#49C1BE"/>
	</linearGradient>
	<path class="st8" d="M225.29,60.37c0-0.18,0.18-0.35,0.18-0.53c0.18,0,0.18,0,0.18,0c0.18,0.18,0.18,0.35,0,0.53
		c-0.88,5.12-2.47,7.77-4.42,7.77c-2.3,0-3.36-1.94-3.36-5.65c0-4.59,1.24-9.36,3.89-14.48c0.71-1.24,1.06-1.77,1.24-1.77l0,0
		c0,0.18-0.18,0.88-0.53,2.12c-1.77,5.12-2.65,8.83-2.65,10.77c0,3,0.71,4.42,2.3,4.42C223,63.54,224.06,62.48,225.29,60.37
		L225.29,60.37z"/>
	<linearGradient id="SVGID_9_" gradientUnits="userSpaceOnUse" x1="169.3053" y1="-98.4754" x2="169.3053" y2="505.0629">
		<stop  offset="0.2834" style="stop-color:#49C1BE"/>
		<stop  offset="0.5044" style="stop-color:#FFFFFF"/>
		<stop  offset="0.7192" style="stop-color:#49C1BE"/>
	</linearGradient>
	<path class="st9" d="M173.13,141.45c-0.35,2-0.79,3.63-1.34,4.86c-0.84,1.92-1.9,2.91-3.07,2.91c-1.64,0-2.65-1-3.09-2.91
		c-0.18-0.76-0.27-1.68-0.27-2.74c0-4.6,1.23-9.36,3.88-14.48c0.7-1.24,1.06-1.77,1.24-1.77c0,0.17-0.18,0.88-0.54,2.11
		c-1.77,5.12-2.65,8.83-2.65,10.78c0,3,0.72,4.42,2.3,4.42c0.88,0,1.93-1.06,3.18-3.19c0-0.18,0.18-0.35,0.18-0.53
		c0.18,0,0.18,0,0.18,0C173.3,141.11,173.3,141.28,173.13,141.45z"/>
	<linearGradient id="SVGID_10_" gradientUnits="userSpaceOnUse" x1="223.9546" y1="-146.0797" x2="223.9546" y2="457.3717">
		<stop  offset="0.2834" style="stop-color:#49C1BE"/>
		<stop  offset="0.5044" style="stop-color:#FFFFFF"/>
		<stop  offset="0.7192" style="stop-color:#49C1BE"/>
	</linearGradient>
	<path class="st10" d="M227.77,225.82c-0.88,5.12-2.47,7.77-4.42,7.77c-2.29,0-3.35-1.95-3.35-5.65c0-4.6,1.24-9.37,3.88-14.49
		c0.72-1.23,1.06-1.77,1.24-1.77c0,0.18-0.18,0.88-0.53,2.12c-1.77,5.12-2.65,8.83-2.65,10.77c0,3.01,0.7,4.42,2.29,4.42
		c0.88,0,1.95-1.05,3.18-3.18c0-0.18,0.18-0.36,0.18-0.53c0.18,0,0.18,0,0.18,0C227.95,225.46,227.95,225.64,227.77,225.82z"/>
	<linearGradient id="SVGID_11_" gradientUnits="userSpaceOnUse" x1="219.1954" y1="-140.5412" x2="219.1954" y2="462.9996">
		<stop  offset="0.2834" style="stop-color:#49C1BE"/>
		<stop  offset="0.5044" style="stop-color:#FFFFFF"/>
		<stop  offset="0.7192" style="stop-color:#49C1BE"/>
	</linearGradient>
	<path class="st11" d="M224.37,174.23c-1.2,6.94-3.35,10.54-5.99,10.54c-3.11,0-4.54-2.64-4.54-7.67c0-6.23,1.67-12.69,5.27-19.63
		c0.95-1.68,1.43-2.39,1.68-2.39c0,0.23-0.25,1.2-0.73,2.87c-2.39,6.94-3.59,11.98-3.59,14.6c0,4.07,0.96,5.99,3.12,5.99
		c1.2,0,2.63-1.44,4.3-4.32c0-0.23,0.23-0.48,0.23-0.72c0.25,0,0.25,0,0.25,0C224.61,173.75,224.61,173.99,224.37,174.23z"/>
	<linearGradient id="SVGID_12_" gradientUnits="userSpaceOnUse" x1="292.0214" y1="-114.9057" x2="292.0214" y2="330.7056">
		<stop  offset="0.2834" style="stop-color:#49C1BE"/>
		<stop  offset="0.7076" style="stop-color:#FFFFFF"/>
		<stop  offset="0.9709" style="stop-color:#49C1BE"/>
	</linearGradient>
	<path class="st12" d="M303.22,121.34c-4.25,4.03-9.85,6.05-16.8,6.05c-2.02,0-3.81-0.67-5.15-1.79c-1.34-1.12-2.02-2.46-2.02-4.25
		c0-2.91,1.12-6.05,3.81-8.96c2.46-2.69,4.93-5.37,7.39-8.06c0.67-0.67,0.45-1.12-0.45-1.34c-1.79-0.67-3.81-0.9-6.05-0.9
		c-1.12,0-2.46,0.22-3.81,0.9c-0.22,0-0.45,0.22-0.67,0c0,0,0-0.22,0.22-0.67c0.9-2.02,1.79-3.36,2.69-4.25
		c1.12-0.67,2.69-1.12,4.93-1.12c5.15,0,7.61,1.12,7.61,3.58c0,2.02-1.57,4.7-4.93,8.06c-2.24,2.46-4.48,4.93-6.94,7.17
		c-0.9,1.34-1.34,2.46-1.34,3.36c0,2.24,2.24,3.36,6.94,3.36c4.48,0,8.96-0.9,14.11-2.46c1.34-0.45,2.02-0.45,2.02-0.22
		C304.79,119.77,304.34,120.44,303.22,121.34L303.22,121.34z"/>
	<linearGradient id="SVGID_13_" gradientUnits="userSpaceOnUse" x1="240.2027" y1="-146.5406" x2="240.2027" y2="440.8967">
		<stop  offset="0.2834" style="stop-color:#49C1BE"/>
		<stop  offset="0.5044" style="stop-color:#FFFFFF"/>
		<stop  offset="0.7192" style="stop-color:#49C1BE"/>
	</linearGradient>
	<path class="st13" d="M248.12,230.04c-0.22-1.34-1.34-3.13-3.81-4.92c-2.46-1.79-4.25-2.69-5.59-2.69c-2.69,0-4.48,2.69-4.93,8.52
		c-0.22,0.89,0,1.34,0,1.34c0.22,0,0.67-0.45,1.57-1.8c0.89-1.12,1.58-1.57,2.02-1.57c1.12,0,2.01,0.45,3.13,1.57
		c-2.68,0.91-4.48,1.58-5.38,2.47c-2.01,1.57-2.91,4.25-2.91,7.84c0,0.89,0.67,5.14,2.24,12.31c0.34,1.82,0.65,3.57,0.93,5.24
		c0.61,3.67,1.03,7.01,1.21,10.06c0.03,0.01,0.07,0.01,0.1,0.02c0.62,0.15,1.16,0.43,1.66,0.79c0.02-0.19,0.04-0.39,0.06-0.57
		c0.04-0.64,0.08-1.26,0.08-1.88c0-2.61-0.13-5.2-0.4-7.79v-0.01c-0.23-2.42-0.6-4.83-1.07-7.25c-0.77-3.95-1.86-7.88-3.23-11.82
		c1.12-1.13,2.92-2.25,5.6-3.14c2.24-0.45,4.25-1.12,6.5-1.79c0.22,0,0.67-0.67,1.34-2.24C247.9,231.17,248.35,230.26,248.12,230.04
		z"/>
	<linearGradient id="SVGID_14_" gradientUnits="userSpaceOnUse" x1="238.7164" y1="-127.0778" x2="238.7164" y2="405.9364">
		<stop  offset="0.2834" style="stop-color:#49C1BE"/>
		<stop  offset="0.5044" style="stop-color:#FFFFFF"/>
		<stop  offset="0.7192" style="stop-color:#49C1BE"/>
	</linearGradient>
	<path class="st14" d="M239.04,42.46c1.78-4.33,2.91-8.33,3.28-12.03c0.08-0.86,0.12-1.7,0.12-2.53c0-3.03-0.32-5.84-0.98-8.42
		c-0.31-1.31-0.73-2.55-1.23-3.75c-0.23-0.6-0.5-1.2-0.81-1.78c-0.13-0.25-0.27-0.5-0.41-0.75c-0.5,1.36-1.45,2.58-2.69,3.38
		c-0.14,0.09-0.28,0.17-0.43,0.24c1.61,2.69,2.68,5.48,3.26,8.21c0.11,0.44,0.19,0.86,0.26,1.3c0.25,1.44,0.36,2.85,0.36,4.23
		c0,3.4-1.21,7.53-3.39,12.61c-2.43,5.83-4.13,10.44-4.62,13.6c-0.23,0.97-0.23,1.93-0.23,2.67c0,3.88,1.45,5.81,4.61,5.81
		c3.4,0,6.06-1.7,8.25-4.61c0.73-0.97,1.21-3.4,1.45-7.28C246.32,49.74,243.9,46.11,239.04,42.46z M240.51,57.51
		c-1.7,0.97-3.16,1.45-4.37,1.45c-1.22,0-1.95-0.73-1.95-2.43c0-2.18,0.73-4.85,2.19-7.76c5.09,2.91,7.51,4.85,7.51,6.31
		C243.17,55.81,242.2,56.79,240.51,57.51z"/>
	<linearGradient id="SVGID_15_" gradientUnits="userSpaceOnUse" x1="69.5332" y1="109.3096" x2="410.2215" y2="101.5976">
		<stop  offset="0.2834" style="stop-color:#49C1BE"/>
		<stop  offset="0.5044" style="stop-color:#FFFFFF"/>
		<stop  offset="0.7192" style="stop-color:#49C1BE"/>
		<stop  offset="1" style="stop-color:#49C1BE"/>
	</linearGradient>
	<path class="st15" d="M182.7,106.37c-2.08-1.31-4.04-2.55-6.1-3.86c1.65-2.91,3.57-5.58,5.26-8.49c2.5,1.58,4.91,3.1,7.4,4.68
		c-1.8,2.59-3.53,5.08-5.34,7.67c2.16,1.43,4.21,2.79,6.34,4.21c-1.88,2.98-3.72,5.88-5.61,8.87c-2.54-1.43-4.95-2.94-7.44-4.56
		C179.05,112.04,180.81,109.3,182.7,106.37z"/>
	<linearGradient id="SVGID_16_" gradientUnits="userSpaceOnUse" x1="258.6873" y1="-156.5507" x2="258.6873" y2="419.2337">
		<stop  offset="0.2834" style="stop-color:#49C1BE"/>
		<stop  offset="0.5044" style="stop-color:#FFFFFF"/>
		<stop  offset="0.7192" style="stop-color:#49C1BE"/>
	</linearGradient>
	<path class="st16" d="M240.82,117.84c11.56-4.22,23.6-8.75,36.1-13.28c0.47-0.16,0.78-0.31,0.94-0.16c0.16,0,0.16,0.31-0.16,0.78
		c-0.47,1.25-0.94,2.03-1.25,2.34c-10.63,3.91-22.97,8.6-37.04,14.38C239.73,120.65,240.2,119.24,240.82,117.84L240.82,117.84z"/>
	<linearGradient id="SVGID_17_" gradientUnits="userSpaceOnUse" x1="255.9852" y1="-222.1748" x2="255.9852" y2="535.6664">
		<stop  offset="0.2834" style="stop-color:#49C1BE"/>
		<stop  offset="0.5044" style="stop-color:#FFFFFF"/>
		<stop  offset="0.7192" style="stop-color:#49C1BE"/>
	</linearGradient>
	<path class="st17" d="M261.42,57.53c0,1.98-0.99,4.15-2.57,6.52c-1.58,2.77-3.76,4.94-6.52,6.72c-0.99,0.79-1.58,1.19-1.78,1.19
		v-0.2c0,0,0.4-0.59,1.19-1.58c4.35-4.74,6.72-7.71,6.72-9.29c0-1.58-0.79-2.17-2.17-2.17c-0.79,0-1.58,0.2-2.17,0.4
		c-0.4,0.4-0.79,0.59-0.79,0.59c-0.2,0-0.2-0.2-0.4-0.2c0-0.2,0.2-0.59,0.2-1.19c0.79-3.16,2.37-4.74,4.94-4.74
		C260.24,53.57,261.42,54.76,261.42,57.53L261.42,57.53z"/>
	<linearGradient id="SVGID_18_" gradientUnits="userSpaceOnUse" x1="255.9846" y1="-269.3535" x2="255.9846" y2="488.9118">
		<stop  offset="0.2834" style="stop-color:#49C1BE"/>
		<stop  offset="0.5044" style="stop-color:#FFFFFF"/>
		<stop  offset="0.7192" style="stop-color:#49C1BE"/>
	</linearGradient>
	<path class="st18" d="M261.42,213.51c0,1.98-0.98,4.15-2.57,6.52c-1.58,2.77-3.75,4.94-6.52,6.72c-0.98,0.79-1.58,1.2-1.78,1.2
		v-0.2c0,0,0.39-0.59,1.19-1.59c4.35-4.74,6.72-7.7,6.72-9.28c0-1.59-0.79-2.18-2.17-2.18c-0.79,0-1.59,0.2-2.18,0.39
		c-0.39,0.4-0.79,0.59-0.79,0.59c-0.19,0-0.19-0.19-0.39-0.19c0-0.2,0.2-0.59,0.2-1.19c0.78-3.16,2.37-4.75,4.94-4.75
		C260.23,209.55,261.42,210.75,261.42,213.51z"/>
	<g id="mATidu_3_">
		<g>
			<linearGradient id="SVGID_19_" gradientUnits="userSpaceOnUse" x1="284.3212" y1="-133.0233" x2="185.1535" y2="429.3847">
				<stop  offset="0.2834" style="stop-color:#49C1BE"/>
				<stop  offset="0.5044" style="stop-color:#FFFFFF"/>
				<stop  offset="0.7192" style="stop-color:#49C1BE"/>
			</linearGradient>
			<path class="st19" d="M238.09,258.97c-0.38,0.61-0.75,1.22-1.07,1.81c-0.03,0.04-0.06,0.09-0.08,0.13
				c-0.47-0.86-0.98-1.71-1.55-2.57c-1.01-1.53-2.16-3.06-3.49-4.61c-1.11-1.3-2.23-2.57-3.35-3.86c-1.48-1.69-2.95-3.38-4.39-5.09
				c-2-2.39-4.51-5.62-6.05-9.43c-0.86-2.11-1.34-4.04-1.48-5.87c-0.07-0.96-0.3-2.39-1.67-3.68c-4.42-4.19-7.49-7.99-9.67-11.95
				c-1.62-2.96-2.8-6.26-3.47-9.78c-0.01-0.08-0.02-0.16-0.02-0.21c-0.22-2.26-1.97-3.04-2.63-3.34c-1.68-0.75-3.31-1.67-5.24-2.82
				c-3.65-2.15-7.03-4.81-10.1-7.88c-3.62-3.66-6.46-7.69-8.45-12.01c-1.04-2.27-1.83-4.6-2.37-6.94h-4.57
				c0.59,2.99,1.57,5.95,2.88,8.81c2.2,4.8,5.34,9.27,9.35,13.3c3.32,3.34,7.01,6.24,10.98,8.58c2.06,1.23,3.82,2.21,5.69,3.05
				c0.01,0.01,0.03,0.02,0.04,0.02c0.01,0.09,0.03,0.17,0.04,0.27c0.76,4,2.09,7.74,3.95,11.11c2.4,4.38,5.75,8.53,10.51,13.05
				c0.16,0.16,0.25,0.26,0.28,0.75c0.17,2.31,0.75,4.69,1.79,7.23c1.78,4.38,4.55,7.98,6.78,10.62c1.46,1.74,2.96,3.46,4.46,5.17
				c1.11,1.26,2.21,2.53,3.31,3.81c2.25,2.62,3.94,5.14,5.19,7.72c0.31,0.66,0.61,1.32,0.94,2.01l2.07,4.5v0.01l0.32,0.68l0.17,0.37
				l1.23-3.29c0.04-0.64,0.08-1.26,0.08-1.88C238.5,264.16,238.36,261.57,238.09,258.97z M232.75,18.7
				c-0.58,1.39-1.22,2.77-1.93,4.16c-2.67,5.17-6.14,10.04-10.61,14.88c-2.9,3.14-6.21,6.05-9.4,8.87l-0.63,0.56
				c-2.53,2.22-5.18,4.67-7.51,7.56c-3.31,4.06-5.32,8.13-6.13,12.41l-0.53,0.25c-1.4,0.64-2.84,1.31-4.24,2.07
				c-6.19,3.38-11.41,7.75-15.46,13.03c-5.21,6.75-8.07,14.27-8.5,22.33c-0.81,0.65-1.55,1.33-2.2,1.92
				c-3,2.76-5.53,6.14-7.56,10.05c-2.53,4.93-4.03,10.44-4.43,16.39c-0.23,3.29-0.08,6.46,0.45,9.46c0.38,2.12,0.94,4.37,1.65,6.66
				c0.76,2.43,1.77,4.73,3.01,6.94c0,0,0,0.01,0.01,0.03c1.6,2.82,3.57,5.46,5.93,7.88c0.01,0.01,0.01,0.01,0.02,0.02
				c0.65,0.67,1.33,1.25,1.99,1.8c0.3,0.26,0.6,0.51,0.88,0.77c0.09,0.08,0.18,0.15,0.27,0.22c0,0.07,0.01,0.12,0.02,0.19
				c1.46,0.66,3.05,1.05,4.62,0.76c-0.01-0.08-0.02-0.15-0.03-0.22l-0.07-0.47c-0.04-0.29-0.09-0.58-0.1-0.88
				c-0.08-1.55-1.08-2.4-1.57-2.81l-0.17-0.13c-0.31-0.29-0.65-0.57-0.97-0.84c-0.6-0.51-1.17-0.98-1.67-1.5
				c-1.19-1.22-2.27-2.5-3.23-3.84c-2.07-2.86-3.63-5.97-4.67-9.28c-0.66-2.11-1.17-4.17-1.52-6.11c-0.46-2.64-0.59-5.45-0.39-8.36
				c0.08-1.15,0.2-2.29,0.38-3.41c0.11-0.81,0.26-1.6,0.42-2.39c0.04-0.17,0.08-0.34,0.12-0.5c0.67-2.96,1.68-5.75,3.02-8.35
				c1.8-3.49,3.96-6.37,6.6-8.81c0.79-0.73,1.46-1.32,2.15-1.86c0.94-0.74,1.44-1.71,1.49-2.88c0.34-7.22,2.88-13.98,7.58-20.07
				c3.69-4.77,8.42-8.76,14.07-11.82c1.27-0.69,2.58-1.31,3.97-1.95l0.97-0.45c1.41-0.66,1.87-1.77,2-2.58
				c0.62-3.75,2.29-7.2,5.28-10.87c2.14-2.63,4.63-4.93,7-7.02l0.63-0.55c3.29-2.9,6.69-5.89,9.74-9.2
				c4.75-5.14,8.44-10.33,11.3-15.87c0.34-0.66,0.66-1.31,0.96-1.96C234.88,21.51,233.88,20.1,232.75,18.7z M319.83,129.13
				c-0.87-5.29-2.49-9.88-4.94-14.06c-2.5-4.29-5.39-7.67-8.83-10.34c-0.09-1.31-0.18-2.65-0.4-4.01c-0.57-3.5-1.63-6.95-3.18-10.28
				c-2.76-5.91-6.98-11.23-12.55-15.79c-3.71-3.03-7.94-5.56-12.57-7.53c-0.51-2.67-1.5-5.29-2.93-7.77
				c-1.45-2.53-3.01-4.61-4.73-6.35c-1.74-1.78-3.61-3.67-5.53-5.47c-1-0.93-2.02-1.81-3.04-2.71c-1.08-0.94-2.21-1.91-3.27-2.91
				c-4.01-3.78-7.28-7.47-10.01-11.29c-2.72-3.82-4.83-7.49-6.4-11.15c-0.36-0.81-0.67-1.61-0.96-2.42l-0.01-0.03
				c-0.06-0.15-0.11-0.28-0.16-0.42c-0.3-0.86-0.6-1.73-0.91-2.65c-0.94-1.86-2.11-3.57-3.52-5.12l-1.14,4.07
				c-0.15,0.51-0.3,1.03-0.46,1.54c2.53,3.4,4.09,7.04,4.85,10.6c0.13,0.26,0.28,0.53,0.44,0.78c0.81,1.52,1.71,3.05,2.73,4.6
				c0.59,0.93,1.22,1.86,1.89,2.8c2.9,4.07,6.36,7.97,10.59,11.95c1.12,1.05,2.27,2.06,3.39,3.03c1,0.86,1.98,1.72,2.93,2.61
				c1.87,1.73,3.69,3.58,5.4,5.32c1.45,1.48,2.78,3.27,4.05,5.46c1.24,2.15,2.07,4.39,2.46,6.69c0.22,1.34,0.97,2.28,2.24,2.81
				c4.38,1.83,8.36,4.19,11.84,7.03c5.11,4.18,8.81,8.83,11.32,14.21c1.36,2.94,2.31,6,2.82,9.1c0.2,1.2,0.28,2.43,0.37,3.73
				l0.01,0.1c0.08,1.21,0.59,2.15,1.58,2.91c3.02,2.3,5.58,5.3,7.84,9.16c2.17,3.7,3.6,7.79,4.39,12.53c0.01,0.1,0.03,0.2,0.04,0.3
				c1.58,0.49,3.03,1.26,4.29,2.29c0.18,0.15,0.35,0.3,0.51,0.46C320.19,131.65,320.04,130.38,319.83,129.13z M316.13,135.26
				c-0.08-0.07-0.16-0.12-0.25-0.19c0.03,1.1,0,2.18-0.08,3.28c-0.12,1.62-0.32,3.19-0.6,4.7c-0.3,1.64-0.7,3.22-1.2,4.75
				c-0.64,1.91-1.41,3.75-2.36,5.5c-1.17,2.21-2.64,4.34-4.33,6.33c-1.13,1.31-2.43,2.54-3.97,3.75c-1.49,1.15-1.67,2.69-1.76,3.52
				c-0.25,2.12-0.7,4.27-1.36,6.4c-1.1,3.53-2.71,6.88-4.79,9.95c-1.91,2.83-4.18,5.48-6.74,7.86c-4.13,3.85-8.79,7-14.28,9.63
				c-0.22,0.11-0.45,0.25-0.67,0.36l-1.11,0.6l-0.59,2.44c-0.27,1.15-0.54,2.28-0.85,3.39c-0.92,3.31-2.47,6.53-4.62,9.58
				c-2.28,3.23-4.96,6.26-7.97,9c-1.19,1.07-1.29,2.43-1.34,3.27c-0.25,3.22-1.34,6.34-3.44,9.82c-1.62,2.68-3.7,5.15-5.51,7.26
				c-0.78,0.91-1.59,1.8-2.38,2.69c-1.49,1.67-3,3.38-4.44,5.17v7.69c0.42-0.7,0.89-1.42,1.42-2.16c1.9-2.71,4.07-5.14,6.36-7.73
				c0.81-0.91,1.62-1.82,2.42-2.74c1.95-2.25,4.16-4.89,5.97-7.87c2.44-4.04,3.77-7.89,4.07-11.8l0.01-0.12
				c0-0.09,0.01-0.21,0.02-0.3c3.2-2.92,6.05-6.15,8.48-9.61c2.44-3.47,4.22-7.14,5.27-10.95c0.32-1.17,0.61-2.36,0.89-3.56
				l0.12-0.48c5.75-2.77,10.87-6.25,15.23-10.32c2.81-2.61,5.29-5.51,7.39-8.62c2.33-3.43,4.13-7.18,5.36-11.13
				c0.75-2.39,1.26-4.82,1.53-7.22c0.03-0.31,0.07-0.45,0.07-0.48c0-0.01,0-0.01,0-0.01c1.79-1.4,3.3-2.84,4.62-4.38
				c1.9-2.23,3.54-4.62,4.88-7.11c0.65-1.21,1.23-2.45,1.74-3.75v-0.01c0.54-1.34,1.01-2.74,1.41-4.16
				c0.08-0.26,0.15-0.53,0.21-0.78c0.09-0.36,0.18-0.73,0.26-1.08c0.01-0.02,0.01-0.03,0.01-0.04c0.13-1.12,0.19-2.29,0.19-3.52
				C319.42,139.59,318.39,137.12,316.13,135.26z"/>
		</g>
	</g>
	<path class="st6" d="M319.42,142.06c0,1.23-0.06,2.4-0.19,3.52c0,0.01,0,0.02-0.01,0.04c-0.03,0.41-0.1,0.82-0.17,1.22
		c-0.23,1.34-0.58,2.56-1.07,3.65c-0.22,0.56-0.44,0.94-0.64,1.16v0.01c-0.16,0.19-0.29,0.27-0.39,0.27c-0.2,0-0.4-0.41-1.03-1.44
		c-0.56-1.03-1.2-1.92-1.91-2.69c-2.17-2.31-5.02-3.48-8.58-3.48c-4.67,0-9.8,1.7-15.31,5.15c-0.96,0.59-1.95,1.25-2.93,1.96
		c-0.01,0-0.01,0.01-0.02,0.01c-0.27,0.2-0.55,0.4-0.82,0.6h-0.01v0.01c-3.32,2.45-6.76,5.49-10.34,9.14
		c-6.17,6.59-12.34,13.37-18.32,20.17c-0.79,0.79-1.59,1.53-2.37,2.21c-4.5,3.93-8.82,6.02-12.86,6.02c-3.9,0-7.4-1.86-10.49-5.36
		c-3.09-3.7-4.53-8.43-4.53-13.79c0-5.19,1.42-11.5,4.41-18.92c1.26-3.16,2.81-6.53,4.65-10.09c0.62-1.24,1.23-1.86,1.44-1.86
		c0.2,0,0.4,0.2,0.4,0.41c0,0.79-0.59,2.76-1.72,5.98c0,0.01-0.01,0.03-0.01,0.04c-0.23,0.66-0.49,1.36-0.76,2.14l-0.01,0.01
		c-0.47,1.31-1.01,2.76-1.61,4.37c-0.64,1.72-1.2,3.34-1.67,4.88c-0.01,0.02-0.01,0.04-0.02,0.07c-1.51,4.86-2.21,8.81-2.21,11.93
		c0,3.3,0.61,5.77,2.26,7.61c0.21,0.31,0.44,0.58,0.7,0.85l0.01,0.01c1.42,1.49,3.42,2.23,5.87,2.23c3.88,0,8.44-2.16,13.51-6.5
		c0.01,0,0.01,0,0.02-0.01c0.56-0.47,1.13-0.97,1.7-1.51c0.61-0.63,5.76-6.17,15.43-16.67c3.98-4.33,7.83-8.03,11.55-11.14
		c1.45-1.2,2.87-2.3,4.28-3.32c0.01,0,0.01-0.01,0.02-0.02c0.86-0.63,1.73-1.21,2.57-1.77c6.95-4.54,13.49-6.8,19.65-6.8
		c2.97,0,5.76,0.96,7.98,2.68c0.09,0.07,0.17,0.12,0.25,0.19C318.39,137.12,319.42,139.59,319.42,142.06z"/>
	<path class="st6" d="M290.29,152.79c0-0.17-0.01-0.34-0.02-0.51c0-0.01,0-0.01,0-0.02c0-0.17-0.01-0.36-0.02-0.54
		c-0.01-0.25-0.02-0.5-0.03-0.78c-0.01-0.26-0.03-0.53-0.04-0.81c-0.01-0.21-0.03-0.43-0.04-0.66c0-0.09-0.01-0.19-0.02-0.3v-0.01
		c-0.08-1.11-0.18-2.27-0.29-3.38c-0.04-0.3-0.08-0.59-0.11-0.88c-0.1-0.79-0.22-1.57-0.36-2.25c-0.02-0.13-0.06-0.26-0.08-0.38
		c-0.09-0.41-0.19-0.78-0.29-1.11c-0.21-0.68-0.46-1.34-0.72-1.98c-0.03-0.07-0.06-0.12-0.08-0.18c-1.96-4.58-5.19-7.97-10.3-9.58
		c-2.63-0.83-5.33-1.16-8.07-1.29c-3.4-0.15-6.81-0.12-10.21-0.34c-4.56-0.28-8.76-1.82-12.66-4.16c-0.56-0.34-1.08-0.73-1.82-1.23
		c-0.26,1.05-0.42,1.89-0.67,2.71c-0.13,0.48-0.29,1.01-0.59,1.39c-1.62,2.06-3.32,4.07-4.94,6.13c-1.8,2.28-3.62,4.51-6,6.21
		c-0.3,0.22-0.61,0.42-0.92,0.61c-0.03,0.02-0.07,0.03-0.09,0.04c-0.25,0.16-0.49,0.3-0.75,0.44c-0.13,0.07-0.26,0.13-0.39,0.19
		c-0.28,0.15-0.56,0.28-0.84,0.39c-0.18,0.08-0.36,0.15-0.54,0.2c-0.16,0.07-0.31,0.12-0.46,0.17c-0.3,0.1-0.59,0.18-0.88,0.26
		c-0.34,0.08-0.68,0.15-1.02,0.2c-1.95,0.31-3.95,0.19-6.02-0.39c-3.25-0.91-5.96-2.81-8.21-5.32c-0.5-0.57-0.95-1.19-1.38-1.72
		c0,0,0-0.01,0.01-0.01c0.04-0.1,0.1-0.2,0.16-0.3c-0.07,0.08-0.13,0.17-0.19,0.26c-1.72-2.26-2.99-4.7-3.75-6.37
		c0,0.01-0.01,0.02-0.02,0.03c-0.02-0.03-0.03-0.06-0.06-0.09c-0.21-0.4-0.37-0.64-0.46-0.89c-0.54-1.61-1.01-3.25-1.59-4.85
		c-0.61-1.69-1.26-3.37-2.04-4.99c-0.75-1.59-2.12-2.17-3.86-1.86c-0.3,0.06-0.61,0.1-0.91,0.18c-3.71,0.87-6.66,2.97-9.14,5.77
		c-3.4,3.84-5.65,8.35-7.51,13.08c-1.65,4.18-2.53,8.6-3.68,12.93c-0.51,1.89-0.98,3.79-1.57,5.66c-0.18,0.58-0.39,1.14-0.64,1.69
		c-0.51,1.14-1.19,2.2-2.04,3.14c-0.92,1.02-2.04,1.51-3.42,1.49c-1.82-0.02-3.27-0.84-4.56-2c-0.56-0.5-1.06-1.04-1.52-1.6
		c-1.05-1.25-1.9-2.65-2.59-4.16c-2.23-4.85-3.25-9.99-3.51-15.27c-0.09-1.88-0.09-3.77-0.1-5.65c0.01-1.06,0-2.11-0.02-3.18
		c-0.04-1.44-0.15-2.88-0.3-4.32c-0.07-0.63-0.32-1.23-0.53-1.92c-0.95,0.48-0.98,1.26-1.14,1.93c-0.79,3.28-1.08,6.62-1.2,9.97
		c-0.16,4.91,0.32,9.78,1.2,14.61c0.48,2.71,1.15,5.96,2.26,9.06c0,0,0,0.01,0.01,0.03c1.27,3.59,3.13,6.99,5.93,9.07
		c0.27,0.21,0.56,0.4,0.85,0.58c0.73,0.45,1.51,0.88,2.34,1.24c1.46,0.66,3.05,1.05,4.62,0.76c0.18-0.02,0.37-0.07,0.55-0.12
		c1.22-0.36,2.28-1.07,3.19-1.99c0.97-0.98,1.76-2.17,2.33-3.34c1.04-2.11,1.9-4.35,2.56-6.61c0.89-3.12,1.49-6.32,2.29-9.47
		c1.3-5.12,3.6-9.76,7.04-13.79c1.84-2.14,4.01-3.88,6.7-4.85c2.12-0.78,3.37-0.28,4.26,1.77c0.44,1.01,0.83,2.03,1.2,3.05
		l0.01,0.02c0.29,0.83,0.59,1.65,0.89,2.44c0.01,0.04,0.02,0.08,0.03,0.11c0,0.01,0,0.02,0,0.02c0.82,1.96,2.01,4.53,3.48,7.06v0.01
		c-0.03,0.08-0.06,0.16-0.09,0.24c-0.02,0.03-0.03,0.07-0.03,0.1c0.1,0.13,0.19,0.27,0.27,0.39c0.03,0.06,0.08,0.12,0.12,0.18
		c0.03,0.03,0.06,0.07,0.08,0.1c0.01,0.02,0.02,0.04,0.03,0.07c0.07,0.09,0.13,0.17,0.19,0.25c0.42,0.55,0.86,1.08,1.3,1.62h0.01
		c0.2,0.25,0.4,0.48,0.61,0.73l0.01,0.01c2.05,2.38,4.35,4.51,7.28,5.95c0.65,0.31,1.31,0.59,1.97,0.83
		c0.26,0.09,0.5,0.17,0.76,0.25c0.31,0.09,0.63,0.17,0.93,0.25c0.56,0.13,1.13,0.25,1.7,0.31c0.08,0.01,0.16,0.02,0.23,0.02
		c0.6,0.08,1.21,0.11,1.81,0.11c2.66,0,5.28-0.68,7.66-2.1c0.96-0.57,1.88-1.26,2.75-2.08c0.35-0.32,0.67-0.66,0.98-1.01l0.01-0.01
		c0.09-0.08,0.17-0.17,0.25-0.26l0.01-0.01c1.5-1.65,2.78-3.49,4.15-5.27c0.19-0.26,0.4-0.53,0.63-0.77c0-0.01,0-0.01,0.01-0.02
		c0.19-0.23,0.38-0.47,0.59-0.69c0.68-0.81,1.41-1.58,2.1-2.37c0.17-0.18,0.41-0.28,0.77-0.53c0.79,3.02,1.59,5.92,3.14,8.54
		c1.61,2.72,3.76,4.91,6.25,6.79c2.44,1.83,5.13,3.18,8.19,3.7c1.04-1.23,1.31-2.62,1.51-3.97c0.6-4.19,0.4-8.33-1.02-12.37
		c-0.04-0.15-0.07-0.29-0.13-0.53c0.18-0.08,0.36-0.21,0.53-0.21c3.24,0.02,6.51-0.26,9.73,0.3c3.29,0.58,6.42,1.51,9.09,3.52
		c0.08,0.06,0.16,0.12,0.23,0.19c0.3,0.22,0.59,0.48,0.88,0.75c0.57,0.54,1.23,1.45,1.8,1.99c0.06,0.04,0.1,0.1,0.15,0.16
		c0.06,0.04,0.11,0.11,0.16,0.17c0.04,0.06,0.09,0.11,0.13,0.17c0.12,0.16,0.23,0.32,0.34,0.51c0.12,0.19,0.23,0.4,0.32,0.63
		c0.1,0.2,0.19,0.42,0.27,0.65c0.08,0.22,0.17,0.46,0.23,0.69c0.01,0.02,0.01,0.06,0.02,0.08c0.15,0.49,0.28,1,0.38,1.5
		c0.02,0.09,0.04,0.18,0.06,0.27c0.01,0.02,0.01,0.04,0.01,0.07v0.01c0.03,0.15,0.06,0.28,0.08,0.41c0.02,0.12,0.04,0.25,0.06,0.37
		c0.04,0.25,0.08,0.48,0.11,0.72c0,0.03,0,0.07,0.01,0.09c0.02,0.2,0.06,0.4,0.07,0.59c0.02,0.21,0.04,0.41,0.06,0.6
		c0.02,0.18,0.03,0.34,0.04,0.48c0.04,0.67,0.06,1.11,0.06,1.11c0.01-0.01,0.02-0.01,0.03-0.02c-0.15,0.7-0.21,1.2-0.37,1.65
		c-0.12,0.35-0.25,0.68-0.38,1.02c0.87-0.63,1.8-1.29,2.8-2.01c0,0.04-0.01,0.08-0.02,0.11l1.33-1.23c0.03-0.32,0.07-0.66,0.09-0.98
		C290.35,155.03,290.35,154.15,290.29,152.79z M210.25,187.2l-1.77,0.79l2.09-0.43C210.48,187.44,210.36,187.32,210.25,187.2z"/>
	<g>
		<path class="st6" d="M29.45,95.37v2.21h-1.5c-0.31,0-0.6-0.05-0.85-0.16c-0.26-0.11-0.49-0.24-0.69-0.38
			c-0.21-0.15-0.38-0.3-0.52-0.46c-0.14-0.16-0.24-0.3-0.3-0.41c-0.12,0.12-0.28,0.27-0.49,0.46c-0.21,0.19-0.47,0.36-0.8,0.53
			c-0.32,0.17-0.71,0.32-1.15,0.44c-0.44,0.13-0.95,0.19-1.52,0.19c-0.61,0-1.23-0.08-1.86-0.24c-0.63-0.16-1.2-0.46-1.73-0.91
			c-0.52-0.45-0.95-1.09-1.28-1.9c-0.33-0.82-0.5-1.88-0.5-3.2c0-0.81,0.1-1.56,0.3-2.26c0.2-0.7,0.52-1.31,0.96-1.83
			c0.44-0.52,1.01-0.93,1.71-1.22c0.7-0.29,1.56-0.44,2.58-0.44c0.69,0,1.36,0.04,2.01,0.12c0.65,0.08,1.25,0.17,1.8,0.27
			c0.55,0.1,1.08,0.22,1.59,0.35v7.7c0,0.39,0.12,0.68,0.37,0.87c0.25,0.19,0.54,0.28,0.87,0.28H29.45z M24.91,88.18
			c-0.51-0.14-1.03-0.23-1.55-0.26c-0.52-0.04-0.95-0.06-1.28-0.06c-0.49,0-0.95,0.05-1.37,0.15c-0.42,0.1-0.79,0.29-1.11,0.58
			c-0.32,0.29-0.56,0.67-0.74,1.15s-0.27,1.11-0.27,1.87c0,1.43,0.28,2.47,0.85,3.1c0.57,0.63,1.38,0.94,2.42,0.94
			c0.55,0,1.01-0.06,1.39-0.18c0.37-0.12,0.69-0.26,0.96-0.43c0.27-0.17,0.5-0.36,0.69-0.58V88.18z M19.37,81.93
			c0-0.41,0.14-0.76,0.43-1.05c0.28-0.28,0.63-0.43,1.05-0.43c0.41,0,0.76,0.14,1.05,0.43c0.28,0.28,0.43,0.63,0.43,1.05
			s-0.14,0.76-0.43,1.05c-0.29,0.28-0.63,0.43-1.05,0.43c-0.41,0-0.76-0.14-1.05-0.43C19.51,82.69,19.37,82.34,19.37,81.93z
			 M23.15,81.93c0-0.41,0.14-0.76,0.43-1.05c0.28-0.28,0.63-0.43,1.05-0.43c0.41,0,0.76,0.14,1.05,0.43
			c0.28,0.28,0.43,0.63,0.43,1.05s-0.14,0.76-0.43,1.05c-0.28,0.28-0.63,0.43-1.05,0.43c-0.41,0-0.76-0.14-1.05-0.43
			C23.29,82.69,23.15,82.34,23.15,81.93z"/>
		<path class="st6" d="M32.4,87.06c0.16-0.16,0.35-0.24,0.59-0.24h1.47v7.64c0.18,0.18,0.4,0.33,0.68,0.46
			c0.28,0.13,0.61,0.24,1,0.32c0.39,0.09,0.87,0.13,1.45,0.13h0.56v2.21h-0.56c-0.24,0-0.52-0.02-0.84-0.07
			c-0.32-0.05-0.65-0.13-0.97-0.25c-0.32-0.12-0.64-0.26-0.96-0.44c-0.32-0.18-0.58-0.4-0.8-0.68c-0.24,0.39-0.64,0.73-1.22,1.02
			c-0.58,0.29-1.29,0.43-2.14,0.43h-2.15v-2.21h1.41c0.83,0,1.41-0.2,1.74-0.6c0.33-0.4,0.5-0.92,0.5-1.55v-5.57
			C32.17,87.41,32.25,87.21,32.4,87.06z M30.02,100.79c0-0.41,0.14-0.76,0.43-1.05c0.28-0.29,0.63-0.43,1.05-0.43
			s0.76,0.14,1.05,0.43c0.28,0.28,0.43,0.63,0.43,1.05s-0.14,0.76-0.43,1.05c-0.29,0.28-0.63,0.43-1.05,0.43s-0.76-0.14-1.05-0.43
			C30.16,101.56,30.02,101.21,30.02,100.79z M33.79,100.79c0-0.41,0.14-0.76,0.43-1.05c0.28-0.29,0.63-0.43,1.05-0.43
			c0.41,0,0.76,0.14,1.05,0.43c0.28,0.28,0.43,0.63,0.43,1.05s-0.14,0.76-0.43,1.05c-0.28,0.28-0.63,0.43-1.05,0.43
			c-0.41,0-0.76-0.14-1.05-0.43C33.93,101.56,33.79,101.21,33.79,100.79z"/>
		<path class="st6" d="M37.56,95.37h28.69v2.21H37.56V95.37z"/>
		<path class="st6" d="M65.37,95.37h5.51l-3.54-4.1c0-0.94,0.19-1.76,0.56-2.45c0.37-0.69,0.86-1.26,1.46-1.71
			c0.6-0.45,1.29-0.79,2.08-1.02c0.79-0.23,1.59-0.34,2.42-0.34c0.83,0,1.62,0.1,2.37,0.31c0.76,0.21,1.43,0.54,2.02,0.99
			c0.59,0.45,1.06,1.03,1.4,1.72c0.34,0.7,0.52,1.53,0.52,2.49l-3.51,4.1h8.7v2.21h-10c-0.53,0-0.93-0.11-1.19-0.32
			c-0.27-0.22-0.42-0.47-0.46-0.77c-0.06,0.3-0.21,0.55-0.44,0.77c-0.24,0.22-0.57,0.32-1,0.32h-6.9V95.37z M74.12,95.19l3.8-4.39
			c0-0.31-0.09-0.65-0.27-1.02c-0.18-0.36-0.44-0.7-0.78-1.02c-0.34-0.31-0.77-0.57-1.27-0.77c-0.5-0.2-1.09-0.29-1.75-0.29
			c-0.67,0-1.27,0.11-1.8,0.32c-0.53,0.22-0.98,0.48-1.34,0.8c-0.36,0.32-0.64,0.65-0.84,1c-0.2,0.35-0.3,0.68-0.3,0.97l3.83,4.39
			c0.2,0.26,0.3,0.51,0.32,0.77C73.8,95.66,73.93,95.41,74.12,95.19z"/>
		<path class="st6" d="M93.91,98.47c-0.35,0-0.8-0.04-1.33-0.13c-0.53-0.09-1.07-0.19-1.62-0.31c-0.55-0.12-1.15-0.27-1.8-0.44
			h-8.23v-2.21h6.11c-0.12-0.28-0.24-0.72-0.35-1.34c-0.12-0.62-0.18-1.32-0.18-2.11c0-0.86,0.15-1.66,0.46-2.37
			c0.3-0.72,0.74-1.33,1.31-1.84c0.57-0.51,1.26-0.9,2.06-1.18c0.81-0.28,1.72-0.41,2.74-0.41c0.51,0,1.04,0.04,1.59,0.13
			c0.55,0.09,1.07,0.19,1.56,0.29c0.49,0.11,0.99,0.23,1.5,0.37v7.52c0.02,0.04,0.1,0.11,0.24,0.21c0.14,0.1,0.33,0.2,0.58,0.31
			s0.56,0.21,0.93,0.29c0.37,0.09,0.82,0.13,1.33,0.13h0.56v2.21h-0.56c-0.22,0-0.47-0.02-0.77-0.07c-0.3-0.05-0.6-0.13-0.9-0.24
			c-0.3-0.11-0.6-0.24-0.9-0.4c-0.3-0.16-0.56-0.34-0.8-0.56c-0.22,0.61-0.6,1.12-1.13,1.53C95.77,98.26,94.97,98.47,93.91,98.47z
			 M95.5,88.68c-0.28-0.06-0.6-0.12-0.99-0.19c-0.38-0.07-0.85-0.1-1.4-0.1c-0.75,0-1.39,0.11-1.92,0.32
			c-0.53,0.22-0.97,0.5-1.33,0.84c-0.35,0.34-0.62,0.74-0.78,1.19c-0.17,0.45-0.25,0.91-0.25,1.39c0,0.51,0.02,0.97,0.07,1.37
			c0.05,0.4,0.11,0.76,0.19,1.06c0.08,0.31,0.17,0.57,0.27,0.78c0.43,0.14,0.85,0.26,1.25,0.35c0.4,0.1,0.81,0.2,1.21,0.29
			c0.4,0.1,0.75,0.17,1.05,0.21c0.83,0.16,1.47,0.1,1.93-0.16c0.46-0.27,0.69-0.8,0.69-1.61V88.68z"/>
		<path class="st6" d="M100.4,95.37h14.75v-2.45c0-0.73-0.03-1.38-0.09-1.96c-0.06-0.58-0.23-1.07-0.5-1.47
			c-0.28-0.4-0.7-0.71-1.27-0.93c-0.57-0.22-1.37-0.32-2.39-0.32c-0.45,0-0.9,0.02-1.36,0.06c-0.45,0.04-0.88,0.08-1.28,0.13
			s-0.77,0.11-1.11,0.18c-0.33,0.07-0.62,0.13-0.85,0.19c-0.49,0.14-0.78,0.02-0.85-0.35c-0.04-0.12-0.16-0.62-0.35-1.5
			c0.53-0.14,1.1-0.26,1.7-0.37c0.6-0.11,1.26-0.21,1.98-0.29c0.72-0.09,1.48-0.13,2.28-0.13c1.14,0,2.12,0.11,2.93,0.34
			c0.81,0.23,1.47,0.59,1.98,1.09c0.5,0.5,0.87,1.15,1.11,1.93c0.24,0.79,0.35,1.73,0.35,2.83v2.59c0,0.9-0.18,1.57-0.55,2.01
			c-0.36,0.43-1.04,0.65-2.02,0.65H100.4V95.37z M109.78,100.73c0-0.41,0.14-0.76,0.43-1.05c0.28-0.29,0.63-0.43,1.05-0.43
			s0.76,0.14,1.05,0.43c0.28,0.28,0.43,0.63,0.43,1.05c0,0.41-0.14,0.76-0.43,1.05c-0.29,0.28-0.63,0.43-1.05,0.43
			s-0.76-0.14-1.05-0.43C109.92,101.5,109.78,101.15,109.78,100.73z"/>
		<path class="st6" d="M18.75,108.68c0-0.22,0.08-0.41,0.25-0.58c0.17-0.17,0.36-0.25,0.58-0.25h1.47v6.46l10.56-1.68
			c0.31-0.04,0.73-0.02,1.24,0.07c0.51,0.09,0.97,0.23,1.37,0.43c0.4,0.2,0.76,0.44,1.08,0.72c0.31,0.28,0.59,0.63,0.84,1.05
			c0.25,0.41,0.45,0.9,0.6,1.46c0.16,0.56,0.24,1.21,0.24,1.96c0,0.57-0.04,1.12-0.13,1.65c-0.09,0.53-0.24,1.03-0.46,1.5
			c0.26,0.1,0.56,0.19,0.93,0.28c0.36,0.09,0.8,0.13,1.31,0.13h0.59v2.21h-0.59c-0.45,0-0.99-0.09-1.62-0.27
			c-0.63-0.18-1.18-0.47-1.65-0.88c-0.39,0.35-0.87,0.63-1.44,0.84c-0.57,0.21-1.26,0.31-2.06,0.31h-14.8v-1.3
			c0-0.33,0.07-0.57,0.21-0.71c0.14-0.14,0.32-0.21,0.56-0.21h0.94V108.68z M31.43,121.88c0.26,0,0.57-0.04,0.94-0.13
			c0.37-0.09,0.74-0.26,1.09-0.5c0.35-0.25,0.66-0.58,0.91-1.02c0.26-0.43,0.38-1,0.38-1.71c0-0.83-0.12-1.49-0.37-1.99
			c-0.25-0.5-0.54-0.88-0.88-1.15c-0.34-0.27-0.7-0.44-1.08-0.53c-0.37-0.09-0.69-0.13-0.94-0.13l-10.44,1.77v5.4H31.43z
			 M23.82,109.5c0-0.41,0.14-0.76,0.43-1.05c0.28-0.28,0.63-0.43,1.05-0.43c0.41,0,0.76,0.14,1.05,0.43
			c0.28,0.28,0.43,0.63,0.43,1.05c0,0.41-0.14,0.76-0.43,1.05c-0.28,0.29-0.63,0.43-1.05,0.43c-0.41,0-0.76-0.14-1.05-0.43
			C23.96,110.26,23.82,109.91,23.82,109.5z"/>
		<path class="st6" d="M38.53,121.88h30.33v2.21H38.53V121.88z"/>
		<path class="st6" d="M71.87,113.57c0.16-0.16,0.35-0.24,0.59-0.24h1.47v7.64c0.18,0.18,0.4,0.33,0.68,0.46
			c0.28,0.13,0.61,0.24,1,0.32c0.39,0.09,0.87,0.13,1.45,0.13h0.56v2.21h-0.56c-0.24,0-0.52-0.02-0.84-0.07
			c-0.32-0.05-0.65-0.13-0.97-0.25c-0.32-0.12-0.64-0.26-0.96-0.44c-0.32-0.18-0.58-0.4-0.8-0.68c-0.24,0.39-0.64,0.73-1.22,1.02
			c-0.58,0.29-1.29,0.43-2.14,0.43h-2.15v-2.21h1.41c0.83,0,1.41-0.2,1.74-0.6c0.33-0.4,0.5-0.92,0.5-1.55v-5.57
			C71.63,113.92,71.71,113.73,71.87,113.57z M63.18,128.13c0-0.41,0.14-0.76,0.43-1.05c0.28-0.29,0.63-0.43,1.05-0.43
			s0.76,0.14,1.05,0.43c0.28,0.28,0.43,0.63,0.43,1.05c0,0.41-0.14,0.76-0.43,1.05c-0.29,0.28-0.63,0.43-1.05,0.43
			s-0.76-0.14-1.05-0.43C63.32,128.89,63.18,128.54,63.18,128.13z M66.96,128.13c0-0.41,0.14-0.76,0.43-1.05
			c0.28-0.29,0.63-0.43,1.05-0.43c0.41,0,0.76,0.14,1.05,0.43c0.28,0.28,0.43,0.63,0.43,1.05c0,0.41-0.14,0.76-0.43,1.05
			c-0.28,0.28-0.63,0.43-1.05,0.43c-0.41,0-0.76-0.14-1.05-0.43C67.1,128.89,66.96,128.54,66.96,128.13z"/>
		<path class="st6" d="M92.36,121.88v2.21H76.73v-2.21h4.33c-0.45-0.37-0.82-0.73-1.09-1.08c-0.28-0.34-0.53-0.77-0.75-1.28
			c-0.23-0.51-0.34-1.09-0.34-1.74c0-0.81,0.1-1.55,0.31-2.23c0.21-0.68,0.54-1.26,0.99-1.74c0.45-0.48,1.03-0.85,1.74-1.12
			c0.71-0.27,1.56-0.4,2.56-0.4c0.75,0,1.46,0.09,2.15,0.27c0.69,0.18,1.29,0.47,1.81,0.88c0.52,0.41,0.94,0.97,1.25,1.68
			c0.31,0.71,0.47,1.59,0.47,2.65c0,0.69-0.12,1.29-0.37,1.8c-0.25,0.51-0.52,0.93-0.81,1.27c-0.35,0.39-0.75,0.74-1.18,1.03H92.36z
			 M87.99,117.73c0-0.43-0.05-0.85-0.15-1.27c-0.1-0.41-0.31-0.78-0.63-1.09c-0.32-0.31-0.72-0.56-1.19-0.75
			c-0.47-0.19-0.97-0.28-1.5-0.28c-0.63,0-1.16,0.09-1.61,0.28c-0.44,0.19-0.8,0.44-1.08,0.75c-0.28,0.32-0.48,0.68-0.6,1.09
			s-0.19,0.84-0.19,1.27c0,0.45,0.08,0.86,0.24,1.22c0.16,0.36,0.39,0.71,0.69,1.03c0.3,0.32,0.67,0.64,1.11,0.94
			c0.43,0.3,0.91,0.62,1.45,0.96c0.37-0.24,0.77-0.49,1.18-0.77s0.79-0.58,1.12-0.93c0.33-0.34,0.61-0.72,0.84-1.12
			C87.88,118.67,87.99,118.22,87.99,117.73z M83.04,108.47c0-0.41,0.14-0.76,0.43-1.05c0.28-0.28,0.63-0.43,1.05-0.43
			c0.41,0,0.76,0.14,1.05,0.43c0.28,0.29,0.43,0.63,0.43,1.05c0,0.41-0.14,0.76-0.43,1.05c-0.28,0.28-0.63,0.43-1.05,0.43
			c-0.41,0-0.76-0.14-1.05-0.43C83.18,109.23,83.04,108.88,83.04,108.47z"/>
		<path class="st6" d="M106.18,122.89c-0.16,0.41-0.42,0.72-0.78,0.91c-0.36,0.2-0.88,0.3-1.55,0.3H91.24v-2.21h12.88v-2.45
			c0-0.73-0.03-1.38-0.09-1.96c-0.06-0.58-0.22-1.07-0.49-1.47c-0.26-0.4-0.69-0.71-1.27-0.93c-0.58-0.22-1.38-0.32-2.4-0.32
			c-0.9,0-1.78,0.06-2.62,0.19c-0.85,0.13-1.5,0.25-1.98,0.37c-0.49,0.14-0.77,0.02-0.83-0.35l-0.35-1.5
			c0.53-0.14,1.09-0.26,1.69-0.37c0.6-0.11,1.25-0.21,1.96-0.29c0.71-0.09,1.46-0.13,2.27-0.13c1.16,0,2.14,0.11,2.95,0.34
			c0.81,0.23,1.46,0.59,1.97,1.09c0.51,0.5,0.88,1.15,1.11,1.93c0.23,0.79,0.34,1.73,0.34,2.83v2.09c0.18,0.18,0.4,0.33,0.68,0.46
			c0.28,0.13,0.61,0.24,1,0.34c0.39,0.1,0.87,0.15,1.44,0.15h0.56v2.21h-0.56c-0.47,0-1.03-0.09-1.67-0.28
			C107.21,123.63,106.66,123.32,106.18,122.89z"/>
		<path class="st6" d="M114.63,113.57c0.17-0.16,0.36-0.24,0.58-0.24h1.47v6.16c0,1.57-0.45,2.73-1.36,3.48
			c-0.9,0.75-2.26,1.12-4.07,1.12h-2.03v-2.21h1.95c1,0,1.79-0.24,2.36-0.71c0.57-0.47,0.85-1.17,0.85-2.09v-4.92
			C114.38,113.92,114.46,113.73,114.63,113.57z M111.87,109.47c0-0.41,0.14-0.76,0.43-1.05c0.28-0.28,0.63-0.43,1.05-0.43
			c0.41,0,0.76,0.14,1.05,0.43c0.28,0.28,0.43,0.63,0.43,1.05c0,0.41-0.14,0.76-0.43,1.05c-0.28,0.29-0.63,0.43-1.05,0.43
			c-0.41,0-0.76-0.14-1.05-0.43C112.02,110.23,111.87,109.89,111.87,109.47z M115.65,109.47c0-0.41,0.14-0.76,0.43-1.05
			c0.28-0.28,0.63-0.43,1.05-0.43s0.76,0.14,1.05,0.43c0.28,0.28,0.43,0.63,0.43,1.05c0,0.41-0.14,0.76-0.43,1.05
			c-0.29,0.29-0.63,0.43-1.05,0.43s-0.76-0.14-1.05-0.43C115.79,110.23,115.65,109.89,115.65,109.47z"/>
		<path class="st6" d="M31.95,146.52c0,0.71-0.09,1.45-0.28,2.23c-0.19,0.78-0.56,1.48-1.11,2.12c-0.55,0.64-1.33,1.17-2.33,1.59
			c-1,0.42-2.31,0.63-3.92,0.63c-0.92,0-1.91-0.1-2.95-0.3c-1.04-0.2-2-0.58-2.87-1.15c-0.87-0.57-1.6-1.36-2.18-2.36
			c-0.58-1-0.87-2.32-0.87-3.95c0-0.45,0.03-0.95,0.09-1.5c0.06-0.55,0.14-1.11,0.24-1.67c0.1-0.56,0.21-1.11,0.34-1.64
			c0.13-0.53,0.26-0.99,0.4-1.39c0.77,0.22,1.27,0.37,1.5,0.47c0.24,0.08,0.38,0.19,0.44,0.32c0.06,0.14,0.05,0.35-0.03,0.65
			c-0.06,0.24-0.13,0.53-0.21,0.88c-0.08,0.35-0.15,0.74-0.22,1.16c-0.07,0.42-0.12,0.87-0.16,1.33c-0.04,0.46-0.06,0.92-0.06,1.37
			c0,1.26,0.23,2.24,0.68,2.95c0.45,0.71,1.02,1.24,1.7,1.59c0.68,0.35,1.41,0.58,2.2,0.66c0.79,0.09,1.51,0.13,2.18,0.13
			c1.08,0,1.96-0.12,2.64-0.35c0.68-0.24,1.2-0.55,1.56-0.94c0.36-0.39,0.61-0.86,0.74-1.4c0.13-0.54,0.19-1.11,0.19-1.7v-5.63
			c0-0.24,0.07-0.43,0.21-0.59c0.14-0.16,0.31-0.24,0.53-0.24h1.56V146.52z M23.06,138.94c0-0.41,0.14-0.76,0.43-1.05
			c0.28-0.28,0.63-0.43,1.05-0.43c0.41,0,0.76,0.14,1.05,0.43c0.28,0.29,0.43,0.63,0.43,1.05s-0.14,0.76-0.43,1.05
			c-0.29,0.28-0.63,0.43-1.05,0.43c-0.41,0-0.76-0.14-1.05-0.43C23.21,139.71,23.06,139.36,23.06,138.94z"/>
		<path class="st6" d="M37.52,132.58c-0.45,0.39-0.97,0.64-1.56,0.74s-1.17-0.03-1.74-0.38c-0.26-0.14-0.48-0.28-0.68-0.44
			c-0.2-0.16-0.37-0.31-0.53-0.47c-0.18-0.18-0.34-0.35-0.5-0.53c0.35-0.31,0.55-0.49,0.59-0.53c0.12-0.12,0.26-0.17,0.41-0.16
			c0.16,0.01,0.35,0.11,0.59,0.31c0.16,0.12,0.33,0.24,0.53,0.37c0.2,0.13,0.4,0.22,0.6,0.28c0.21,0.06,0.42,0.07,0.63,0.03
			c0.22-0.04,0.42-0.15,0.62-0.32c0.27-0.28,0.57-0.47,0.88-0.58c0.31-0.11,0.63-0.16,0.94-0.16c0.63,0,1.2,0.18,1.71,0.53
			c0.51,0.35,0.96,0.76,1.36,1.21l-0.65,0.71c-0.1,0.1-0.22,0.14-0.37,0.12c-0.15-0.02-0.31-0.11-0.49-0.27
			c-0.45-0.39-0.86-0.64-1.22-0.75C38.29,132.16,37.91,132.26,37.52,132.58z M37.99,148.97c0,0.24-0.07,0.43-0.22,0.59
			c-0.15,0.16-0.35,0.24-0.6,0.24h-1.5v-13.85c0-0.24,0.08-0.43,0.25-0.59c0.17-0.16,0.36-0.24,0.58-0.24h1.5V148.97z"/>
		<path class="st6" d="M44,140.71c0-0.24,0.08-0.44,0.25-0.6c0.17-0.17,0.36-0.25,0.58-0.25h1.47v7.64
			c0.04,0.04,0.13,0.11,0.27,0.22c0.14,0.11,0.33,0.21,0.59,0.31c0.26,0.1,0.56,0.19,0.93,0.27c0.36,0.08,0.79,0.12,1.28,0.12h0.59
			v2.21h-0.59c-0.41,0-0.91-0.08-1.5-0.24c-0.59-0.16-1.11-0.41-1.56-0.77v1.17c0,0.92-0.14,1.68-0.41,2.27
			c-0.28,0.59-0.67,1.03-1.18,1.33c-0.51,0.3-1.13,0.45-1.84,0.46c-0.72,0.01-1.51-0.1-2.37-0.34c-0.28-0.1-0.51-0.2-0.69-0.31
			c-0.19-0.11-0.24-0.31-0.16-0.6l0.32-1.39c0.41,0.18,0.82,0.32,1.22,0.43c0.4,0.11,0.71,0.16,0.93,0.16c0.71,0,1.2-0.18,1.47-0.53
			c0.28-0.35,0.41-0.91,0.41-1.68V140.71z"/>
		<path class="st6" d="M104.83,148.4v2.21H49.07v-2.21h44.46c-0.45-0.37-0.82-0.73-1.09-1.08c-0.28-0.34-0.53-0.77-0.75-1.28
			c-0.23-0.51-0.34-1.09-0.34-1.74c0-0.81,0.1-1.55,0.31-2.23c0.21-0.68,0.54-1.26,0.99-1.74c0.45-0.48,1.03-0.85,1.74-1.12
			c0.71-0.27,1.56-0.4,2.56-0.4c0.75,0,1.46,0.09,2.15,0.27c0.69,0.18,1.29,0.47,1.81,0.88c0.52,0.41,0.94,0.97,1.25,1.68
			c0.31,0.71,0.47,1.59,0.47,2.65c0,0.69-0.12,1.29-0.37,1.8c-0.25,0.51-0.52,0.93-0.81,1.27c-0.35,0.39-0.75,0.74-1.18,1.03H104.83
			z M100.47,144.24c0-0.43-0.05-0.85-0.15-1.27c-0.1-0.41-0.31-0.78-0.63-1.09c-0.32-0.31-0.72-0.56-1.19-0.75
			c-0.47-0.19-0.97-0.28-1.5-0.28c-0.63,0-1.16,0.09-1.61,0.28c-0.44,0.19-0.8,0.44-1.08,0.75c-0.28,0.32-0.48,0.68-0.6,1.09
			c-0.13,0.41-0.19,0.84-0.19,1.27c0,0.45,0.08,0.86,0.24,1.22c0.16,0.36,0.39,0.71,0.69,1.03c0.3,0.32,0.67,0.64,1.11,0.94
			c0.43,0.3,0.91,0.62,1.45,0.96c0.37-0.24,0.77-0.49,1.18-0.77c0.41-0.28,0.79-0.58,1.12-0.93c0.33-0.34,0.61-0.72,0.84-1.12
			C100.35,145.18,100.47,144.74,100.47,144.24z M93.65,134.99c0-0.41,0.14-0.76,0.43-1.05c0.28-0.28,0.63-0.43,1.05-0.43
			s0.76,0.14,1.05,0.43c0.28,0.29,0.43,0.63,0.43,1.05c0,0.41-0.14,0.76-0.43,1.05c-0.28,0.28-0.63,0.43-1.05,0.43
			s-0.76-0.14-1.05-0.43C93.8,135.75,93.65,135.4,93.65,134.99z M97.43,134.99c0-0.41,0.14-0.76,0.43-1.05
			c0.28-0.28,0.63-0.43,1.05-0.43c0.41,0,0.76,0.14,1.05,0.43c0.28,0.29,0.43,0.63,0.43,1.05c0,0.41-0.14,0.76-0.43,1.05
			c-0.29,0.28-0.63,0.43-1.05,0.43c-0.41,0-0.76-0.14-1.05-0.43C97.57,135.75,97.43,135.4,97.43,134.99z"/>
		<path class="st6" d="M110.46,144.69c0,0.92-0.08,1.75-0.25,2.48s-0.46,1.35-0.87,1.86c-0.41,0.51-0.98,0.9-1.7,1.18
			s-1.63,0.41-2.73,0.41h-1.21v-2.21h1.21c1.12,0,1.94-0.24,2.46-0.72c0.52-0.48,0.78-1.17,0.78-2.08v-12.12
			c0-0.24,0.07-0.43,0.22-0.59c0.15-0.16,0.33-0.24,0.55-0.24h1.53V144.69z"/>
		<path class="st6" d="M116.98,149.79c0,0.24-0.07,0.43-0.22,0.59c-0.15,0.16-0.35,0.24-0.6,0.24h-1.5v-17.13
			c0-0.24,0.08-0.43,0.25-0.59c0.17-0.16,0.36-0.24,0.58-0.24h1.5V149.79z"/>
		<path class="st6" d="M29.24,174.92v2.21h-1.5c-0.31,0-0.6-0.05-0.85-0.16c-0.26-0.11-0.49-0.24-0.69-0.38
			c-0.21-0.15-0.38-0.3-0.52-0.46c-0.14-0.16-0.24-0.3-0.3-0.41c-0.12,0.12-0.28,0.27-0.49,0.46c-0.21,0.19-0.47,0.36-0.8,0.53
			c-0.32,0.17-0.71,0.32-1.15,0.44c-0.44,0.13-0.95,0.19-1.52,0.19c-0.61,0-1.23-0.08-1.86-0.24c-0.63-0.16-1.2-0.46-1.73-0.91
			c-0.52-0.45-0.95-1.09-1.28-1.9c-0.33-0.82-0.5-1.88-0.5-3.2c0-0.81,0.1-1.56,0.3-2.26c0.2-0.7,0.52-1.31,0.96-1.83
			c0.44-0.52,1.01-0.93,1.71-1.22c0.7-0.29,1.56-0.44,2.58-0.44c0.69,0,1.36,0.04,2.01,0.12c0.65,0.08,1.25,0.17,1.8,0.27
			c0.55,0.1,1.08,0.22,1.59,0.35v7.7c0,0.39,0.12,0.68,0.37,0.87c0.25,0.19,0.54,0.28,0.87,0.28H29.24z M24.7,167.72
			c-0.51-0.14-1.03-0.23-1.55-0.26c-0.52-0.04-0.95-0.06-1.28-0.06c-0.49,0-0.95,0.05-1.37,0.15c-0.42,0.1-0.79,0.29-1.11,0.58
			c-0.32,0.29-0.56,0.67-0.74,1.15c-0.18,0.48-0.27,1.11-0.27,1.87c0,1.43,0.28,2.47,0.85,3.1c0.57,0.63,1.38,0.94,2.42,0.94
			c0.55,0,1.01-0.06,1.39-0.18c0.37-0.12,0.69-0.26,0.96-0.43c0.27-0.17,0.5-0.36,0.69-0.58V167.72z M19.15,161.47
			c0-0.41,0.14-0.76,0.43-1.05s0.63-0.43,1.05-0.43s0.76,0.14,1.05,0.43c0.28,0.28,0.43,0.63,0.43,1.05c0,0.41-0.14,0.76-0.43,1.05
			c-0.29,0.28-0.63,0.43-1.05,0.43s-0.76-0.14-1.05-0.43S19.15,161.88,19.15,161.47z M22.93,161.47c0-0.41,0.14-0.76,0.43-1.05
			c0.28-0.28,0.63-0.43,1.05-0.43c0.41,0,0.76,0.14,1.05,0.43s0.43,0.63,0.43,1.05c0,0.41-0.14,0.76-0.43,1.05s-0.63,0.43-1.05,0.43
			c-0.41,0-0.76-0.14-1.05-0.43C23.07,162.23,22.93,161.88,22.93,161.47z"/>
		<path class="st6" d="M28.29,174.92h5.51l-3.54-4.1c0-0.94,0.19-1.76,0.56-2.45c0.37-0.69,0.86-1.26,1.46-1.71
			c0.6-0.45,1.29-0.79,2.08-1.02c0.79-0.23,1.59-0.34,2.42-0.34c0.83,0,1.62,0.1,2.37,0.31s1.43,0.54,2.02,0.99
			c0.59,0.45,1.06,1.03,1.4,1.72c0.34,0.7,0.52,1.53,0.52,2.49l-3.51,4.1h5.42v2.21h-6.72c-0.53,0-0.93-0.11-1.19-0.32
			c-0.27-0.22-0.42-0.47-0.46-0.77c-0.06,0.3-0.21,0.55-0.44,0.77c-0.24,0.22-0.57,0.32-1,0.32h-6.9V174.92z M37.05,174.74l3.8-4.39
			c0-0.31-0.09-0.65-0.27-1.02c-0.18-0.36-0.44-0.7-0.78-1.02c-0.34-0.31-0.77-0.57-1.27-0.77c-0.5-0.2-1.09-0.29-1.75-0.29
			c-0.67,0-1.27,0.11-1.8,0.32c-0.53,0.22-0.98,0.48-1.34,0.8c-0.36,0.32-0.64,0.65-0.84,1c-0.2,0.35-0.3,0.68-0.3,0.97l3.83,4.39
			c0.2,0.26,0.3,0.51,0.32,0.77C36.72,175.21,36.85,174.96,37.05,174.74z"/>
		<path class="st6" d="M53.56,178.01c-0.35,0-0.8-0.04-1.33-0.13c-0.53-0.09-1.07-0.19-1.62-0.31c-0.55-0.12-1.15-0.27-1.8-0.44
			h-4.95v-2.21h2.83c-0.12-0.28-0.24-0.72-0.35-1.34c-0.12-0.62-0.18-1.32-0.18-2.11c0-0.86,0.15-1.66,0.46-2.37
			c0.3-0.72,0.74-1.33,1.31-1.84c0.57-0.51,1.26-0.9,2.06-1.18c0.81-0.28,1.72-0.41,2.74-0.41c0.51,0,1.04,0.04,1.59,0.13
			c0.55,0.09,1.07,0.19,1.56,0.29c0.49,0.11,0.99,0.23,1.5,0.37v7.52c0.02,0.04,0.1,0.11,0.24,0.21c0.14,0.1,0.33,0.2,0.58,0.31
			c0.25,0.11,0.56,0.21,0.93,0.29c0.37,0.09,0.82,0.13,1.33,0.13h0.56v2.21h-0.56c-0.22,0-0.47-0.02-0.77-0.07
			c-0.3-0.05-0.6-0.13-0.9-0.24c-0.3-0.11-0.6-0.24-0.9-0.4c-0.3-0.16-0.56-0.34-0.8-0.56c-0.22,0.61-0.6,1.12-1.13,1.53
			C55.42,177.81,54.62,178.01,53.56,178.01z M55.15,168.22c-0.28-0.06-0.6-0.12-0.99-0.19c-0.38-0.07-0.85-0.1-1.4-0.1
			c-0.75,0-1.39,0.11-1.92,0.32c-0.53,0.22-0.97,0.5-1.33,0.84c-0.35,0.34-0.62,0.74-0.78,1.19c-0.17,0.45-0.25,0.91-0.25,1.39
			c0,0.51,0.02,0.97,0.07,1.37c0.05,0.4,0.11,0.76,0.19,1.06c0.08,0.31,0.17,0.57,0.27,0.78c0.43,0.14,0.85,0.26,1.25,0.35
			c0.4,0.1,0.81,0.2,1.21,0.29c0.4,0.1,0.75,0.17,1.05,0.21c0.83,0.16,1.47,0.1,1.93-0.16c0.46-0.27,0.69-0.8,0.69-1.61V168.22z"/>
		<path class="st6" d="M74.99,175.92c-0.16,0.41-0.42,0.72-0.78,0.91c-0.36,0.2-0.88,0.3-1.55,0.3H60.05v-2.21h12.88v-2.45
			c0-0.73-0.03-1.38-0.09-1.96c-0.06-0.58-0.22-1.07-0.49-1.47c-0.26-0.4-0.69-0.71-1.27-0.93c-0.58-0.22-1.38-0.32-2.4-0.32
			c-0.9,0-1.78,0.06-2.62,0.19c-0.85,0.13-1.5,0.25-1.98,0.37c-0.49,0.14-0.77,0.02-0.83-0.35l-0.35-1.5
			c0.53-0.14,1.09-0.26,1.69-0.37c0.6-0.11,1.25-0.21,1.96-0.29c0.71-0.09,1.46-0.13,2.27-0.13c1.16,0,2.14,0.11,2.95,0.34
			c0.81,0.23,1.46,0.59,1.97,1.09c0.51,0.5,0.88,1.15,1.11,1.93c0.23,0.79,0.34,1.73,0.34,2.83v2.09c0.18,0.18,0.4,0.33,0.68,0.46
			c0.28,0.13,0.61,0.24,1,0.34c0.39,0.1,0.87,0.15,1.44,0.15h0.56v2.21h-0.56c-0.47,0-1.03-0.09-1.67-0.28
			C76.02,176.66,75.46,176.35,74.99,175.92z M67.56,180.28c0-0.41,0.14-0.76,0.43-1.05c0.28-0.29,0.63-0.43,1.05-0.43
			c0.41,0,0.76,0.14,1.05,0.43c0.28,0.28,0.43,0.63,0.43,1.05c0,0.41-0.14,0.76-0.43,1.05c-0.29,0.28-0.63,0.43-1.05,0.43
			c-0.41,0-0.76-0.14-1.05-0.43C67.71,181.04,67.56,180.7,67.56,180.28z"/>
		<path class="st6" d="M100.38,171.2c0,0.88-0.08,1.69-0.24,2.42c-0.16,0.73-0.43,1.35-0.83,1.86c-0.39,0.51-0.93,0.91-1.61,1.19
			c-0.68,0.28-1.53,0.44-2.55,0.46H94.6c-0.22,0-0.47-0.02-0.77-0.07c-0.3-0.05-0.6-0.13-0.9-0.24c-0.3-0.11-0.6-0.24-0.9-0.4
			c-0.3-0.16-0.56-0.34-0.8-0.56c-0.22,0.61-0.6,1.12-1.13,1.53c-0.54,0.41-1.34,0.62-2.4,0.62c-0.35,0-0.8-0.04-1.33-0.13
			c-0.53-0.09-1.07-0.19-1.62-0.31c-0.55-0.12-1.15-0.27-1.8-0.44H78v-2.21h2.83c-0.12-0.28-0.24-0.72-0.35-1.34
			c-0.12-0.62-0.18-1.32-0.18-2.11c0-0.86,0.15-1.66,0.46-2.37c0.3-0.72,0.74-1.33,1.31-1.84c0.57-0.51,1.26-0.9,2.06-1.18
			c0.81-0.28,1.72-0.41,2.74-0.41c0.51,0,1.04,0.04,1.59,0.13c0.55,0.09,1.07,0.19,1.56,0.29c0.49,0.11,0.99,0.23,1.5,0.37v7.52
			c0.02,0.04,0.1,0.11,0.24,0.21c0.14,0.1,0.33,0.2,0.58,0.31s0.56,0.21,0.93,0.29c0.37,0.09,0.82,0.13,1.33,0.13h0.24
			c1.12,0,1.94-0.24,2.46-0.72c0.52-0.48,0.78-1.17,0.78-2.08V160c0-0.24,0.07-0.43,0.22-0.59c0.15-0.16,0.33-0.24,0.55-0.24h1.53
			V171.2z M89.29,173.97v-5.75c-0.28-0.04-0.6-0.1-0.99-0.18c-0.38-0.08-0.85-0.12-1.4-0.12c-0.75,0-1.39,0.11-1.92,0.32
			c-0.53,0.22-0.97,0.5-1.33,0.84c-0.35,0.34-0.62,0.74-0.78,1.19c-0.17,0.45-0.25,0.91-0.25,1.39c0,0.51,0.02,0.97,0.07,1.37
			c0.05,0.4,0.11,0.76,0.19,1.06c0.08,0.31,0.17,0.57,0.27,0.78c0.43,0.14,0.85,0.26,1.25,0.35c0.4,0.1,0.81,0.2,1.21,0.29
			c0.4,0.1,0.75,0.17,1.05,0.21c0.83,0.16,1.47,0.1,1.93-0.16C89.06,175.31,89.29,174.78,89.29,173.97z"/>
		<path class="st6" d="M104.24,159.17h1.47c0.22,0,0.41,0.08,0.58,0.24c0.17,0.16,0.25,0.35,0.25,0.59v12.15
			c0,0.9,0.26,1.59,0.78,2.06c0.52,0.47,1.34,0.71,2.46,0.71h0.65v2.21h-0.65c-1.1,0-2.01-0.14-2.73-0.41s-1.28-0.67-1.69-1.18
			c-0.41-0.51-0.7-1.13-0.87-1.86s-0.25-1.54-0.25-2.45V159.17z"/>
		<path class="st6" d="M114.78,166.6c0.17-0.16,0.36-0.24,0.58-0.24h1.47v6.16c0,1.57-0.45,2.73-1.36,3.48
			c-0.9,0.75-2.26,1.12-4.07,1.12h-2.03v-2.21h1.95c1,0,1.79-0.24,2.36-0.71c0.57-0.47,0.85-1.17,0.85-2.09v-4.92
			C114.53,166.96,114.61,166.76,114.78,166.6z M112.73,180.28c0-0.41,0.14-0.76,0.43-1.05c0.28-0.29,0.63-0.43,1.05-0.43
			c0.41,0,0.76,0.14,1.05,0.43c0.28,0.28,0.43,0.63,0.43,1.05c0,0.41-0.14,0.76-0.43,1.05c-0.28,0.28-0.63,0.43-1.05,0.43
			c-0.41,0-0.76-0.14-1.05-0.43C112.87,181.04,112.73,180.7,112.73,180.28z"/>
	</g>
</g>
</svg>
